<?xml version="1.0" standalone="no"?>
<!DOCTYPE svg PUBLIC "-//W3C//DTD SVG 20010904//EN"
 "http://www.w3.org/TR/2001/REC-SVG-20010904/DTD/svg10.dtd">
<svg version="1.0" xmlns="http://www.w3.org/2000/svg"
 width="1806.000000pt" height="607.000000pt" viewBox="0 0 1806.000000 607.000000"
 preserveAspectRatio="xMidYMid meet">

<g transform="translate(0.000000,607.000000) scale(0.100000,-0.100000)"
fill="#000000" stroke="none">
<path d="M2 3028 l3 -3033 2 3027 3 3028 9028 3 9027 2 -9032 3 -9033 2 2
-3032z"/>
<path d="M360 5911 l0 -119 73 -4 c39 -2 1465 -1 3167 2 l3095 5 3 118 3 117
-3171 0 -3170 0 0 -119z m1210 8 c0 -44 -4 -68 -10 -64 -18 11 -12 135 7 135
2 0 3 -32 3 -71z m390 61 c0 -5 -7 -10 -15 -10 -12 0 -15 -14 -15 -65 0 -51 3
-65 15 -65 8 0 15 -5 15 -11 0 -6 -10 -9 -22 -7 -21 3 -23 9 -26 72 -2 38 -1
75 2 83 6 15 46 18 46 3z m270 -61 c0 -44 -4 -68 -10 -64 -18 11 -12 135 7
135 2 0 3 -32 3 -71z m1130 41 c0 -13 8 -20 28 -22 21 -2 28 -9 30 -31 2 -16
0 -36 -4 -45 -6 -12 -9 -6 -13 23 -7 49 -34 56 -39 10 -7 -64 -22 -48 -22 24
0 45 4 70 10 66 6 -3 10 -15 10 -25z m384 -46 c-15 -60 -44 -117 -44 -89 0 15
37 143 45 155 16 25 15 -2 -1 -66z m60 0 c-15 -60 -44 -117 -44 -89 0 15 37
143 45 155 16 25 15 -2 -1 -66z m186 46 c0 -13 8 -20 28 -22 21 -2 28 -9 30
-31 2 -16 0 -36 -4 -45 -6 -12 -9 -6 -13 23 -8 52 -34 55 -41 5 -4 -31 -9 -35
-38 -38 -36 -4 -62 16 -62 45 0 27 20 43 52 43 23 0 28 4 28 26 0 14 4 23 10
19 6 -3 10 -15 10 -25z m730 -41 c0 -44 -4 -68 -10 -64 -18 11 -12 135 7 135
2 0 3 -32 3 -71z m704 -5 c-15 -60 -44 -117 -44 -89 0 15 37 143 45 155 16 25
15 -2 -1 -66z m421 55 c-3 -5 -13 -34 -21 -65 -19 -74 -38 -105 -29 -49 9 62
36 136 46 129 5 -3 7 -10 4 -15z m375 -50 c0 -44 -4 -68 -10 -64 -18 11 -12
135 7 135 2 0 3 -32 3 -71z m345 50 c-3 -5 -13 -34 -21 -65 -19 -74 -38 -105
-29 -49 9 62 36 136 46 129 5 -3 7 -10 4 -15z m77 -64 c0 -65 -3 -81 -16 -83
-9 -2 -16 1 -16 7 0 6 5 11 10 11 6 0 10 28 10 65 0 37 -4 65 -10 65 -5 0 -10
5 -10 11 0 6 7 9 16 7 13 -2 16 -18 16 -83z m-6182 54 c0 -6 -7 -9 -15 -5 -18
6 -45 -2 -45 -15 0 -5 7 -9 15 -9 8 0 15 -4 15 -10 0 -5 7 -10 16 -10 11 0 14
-8 12 -27 -2 -23 -9 -29 -34 -31 -21 -2 -33 2 -37 12 -5 12 0 14 24 9 27 -5
31 -3 27 13 -2 10 -13 20 -25 22 -26 4 -38 29 -22 48 14 17 69 19 69 3z m108
-1 c20 -20 15 -86 -7 -98 -63 -33 -122 39 -74 92 18 20 63 24 81 6z m107 -40
l20 -53 3 53 c3 50 4 52 31 52 56 0 67 -60 13 -68 -12 -2 -22 -12 -24 -24 -4
-25 -48 -37 -48 -13 0 20 -49 20 -56 0 -4 -8 -10 -13 -15 -10 -7 5 0 30 26
103 10 27 31 9 50 -40z m313 15 l22 -38 0 38 c0 20 5 37 10 37 6 0 10 -27 10
-60 0 -33 -2 -60 -5 -60 -3 0 -19 21 -35 46 l-29 46 -3 -44 -3 -43 -52 -3
c-51 -3 -53 -3 -53 22 0 21 -5 26 -27 27 l-28 1 25 7 c18 5 26 15 28 34 3 26
6 27 61 27 55 0 58 -1 79 -37z m85 0 l15 -38 7 33 c9 39 25 53 24 20 -1 -31
-34 -105 -41 -92 -3 5 -10 25 -16 44 -5 19 -13 43 -17 53 -4 9 -3 17 3 17 5 0
16 -17 25 -37z m178 28 c-45 -8 -54 -31 -12 -31 17 0 31 -4 31 -10 0 -5 -13
-10 -30 -10 -23 0 -30 -4 -30 -20 0 -16 7 -20 30 -20 17 0 30 -5 30 -11 0 -6
-16 -9 -37 -7 l-38 3 -3 58 -3 57 48 -1 c44 -2 45 -2 14 -8z m1289 1 c0 -5
-10 -8 -21 -8 -34 1 -33 -20 1 -35 32 -15 39 -39 16 -59 -17 -13 -58 -10 -63
6 -2 7 8 9 28 6 39 -6 36 16 -4 36 -25 12 -35 40 -20 55 9 10 63 9 63 -1z
m120 -11 c34 -65 -30 -132 -82 -84 -20 18 -24 73 -6 91 20 20 76 15 88 -7z
m99 -33 l20 -53 0 53 1 53 38 -3 c34 -3 37 -6 37 -33 0 -23 -5 -30 -25 -35
-16 -4 -26 -14 -28 -28 -2 -16 -9 -21 -25 -18 -11 1 -23 8 -25 14 -5 17 -33
15 -54 -5 -14 -13 -18 -13 -18 -2 0 28 34 109 46 109 7 0 22 -24 33 -52z m307
24 c23 -46 34 -49 34 -9 0 20 5 37 10 37 14 0 9 -109 -5 -113 -5 -1 -21 18
-35 43 l-25 45 -3 -47 c-4 -67 -22 -60 -22 8 l0 55 -32 -3 c-42 -4 -50 -28 -9
-28 17 0 31 -4 31 -10 0 -5 -13 -10 -30 -10 -23 0 -30 -4 -30 -20 0 -16 7 -20
30 -20 17 0 30 -5 30 -11 0 -6 -16 -9 -37 -7 -31 2 -39 7 -41 26 -3 16 -11 22
-30 23 l-27 2 28 4 c22 4 27 9 27 34 l0 30 62 -3 c54 -3 64 -6 74 -26z m90
-13 c7 -41 7 -41 20 -18 7 13 13 32 14 42 0 9 5 17 10 17 13 0 13 -4 -2 -54
-18 -63 -29 -73 -44 -38 -19 47 -27 92 -15 92 6 0 14 -19 17 -41z m308 26 c3
-8 12 -15 21 -15 8 0 15 7 15 15 0 19 16 20 23 1 4 -10 24 -16 54 -18 44 -3
48 -5 51 -31 4 -31 -12 -57 -36 -57 -8 0 -21 -8 -28 -17 -13 -17 -13 -17 -14
0 0 10 -8 17 -19 17 -21 0 -31 19 -31 57 0 18 -5 24 -17 21 -20 -3 -32 -58
-14 -58 6 0 11 -4 11 -10 0 -5 -7 -10 -15 -10 -18 0 -30 47 -26 103 1 21 17
22 25 2z m-2294 -30 c0 -8 -4 -15 -10 -15 -5 0 -10 7 -10 15 0 8 5 15 10 15 6
0 10 -7 10 -15z m190 -31 c0 -27 -4 -43 -10 -39 -5 3 -10 19 -10 34 0 15 -3
31 -7 34 -12 13 -33 -15 -33 -44 0 -16 -4 -29 -10 -29 -5 0 -10 20 -10 45 l0
45 40 0 40 0 0 -46z m44 19 l14 -28 7 28 c4 15 11 27 16 27 13 0 11 -12 -7
-55 -17 -41 -24 -39 -48 18 -17 43 -4 51 18 10z m134 5 c2 -11 -5 -18 -23 -20
-33 -4 -33 -22 0 -26 14 -2 25 -8 25 -13 0 -13 -54 -11 -68 3 -16 16 -15 51 0
66 18 18 62 11 66 -10z m117 -17 c0 -41 -25 -62 -52 -45 -41 26 -21 87 26 82
22 -3 26 -8 26 -37z m95 22 c0 -15 2 -15 19 1 23 21 65 18 69 -6 2 -11 -5 -18
-23 -20 -33 -4 -33 -22 0 -26 35 -5 31 -22 -5 -22 -19 0 -34 7 -42 19 -12 20
-12 20 -26 0 -7 -10 -22 -19 -33 -19 -11 0 -19 -7 -19 -16 0 -8 -4 -12 -10 -9
-5 3 -10 31 -10 61 l0 54 40 0 c31 0 40 -4 40 -17z m286 6 c4 -8 9 -8 17 0 6
6 42 11 79 11 l68 0 0 -46 c0 -27 -4 -43 -10 -39 -5 3 -10 19 -10 36 0 16 -4
29 -10 29 -5 0 -10 -13 -10 -29 0 -17 -4 -33 -10 -36 -6 -4 -10 8 -10 29 0 25
-4 36 -15 36 -11 0 -15 -11 -15 -36 0 -21 -4 -33 -10 -29 -5 3 -10 23 -10 43
0 33 -1 35 -16 20 -12 -12 -14 -20 -5 -36 16 -30 13 -37 -8 -18 -16 15 -19 15
-31 1 -18 -21 -24 -11 -9 13 11 18 10 24 -5 41 -17 18 -17 21 -3 21 9 0 19 -5
23 -11z m284 -35 c0 -27 -4 -43 -10 -39 -5 3 -10 19 -10 34 0 15 -3 31 -7 34
-12 13 -33 -16 -33 -45 0 -17 -4 -27 -10 -23 -5 3 -10 24 -10 46 0 39 0 39 40
39 l40 0 0 -46z m75 36 c-3 -5 -12 -7 -20 -3 -22 8 -18 -13 6 -28 29 -20 16
-51 -20 -47 -14 2 -24 8 -22 13 2 6 13 8 25 7 17 -3 18 -2 7 12 -7 9 -20 16
-27 16 -14 0 -19 22 -7 33 10 11 65 8 58 -3z m53 -1 c-2 -6 -8 -10 -13 -10 -5
0 -11 4 -13 10 -2 6 4 11 13 11 9 0 15 -5 13 -11z m1230 0 c-2 -6 -8 -10 -13
-10 -5 0 -11 4 -13 10 -2 6 4 11 13 11 9 0 15 -5 13 -11z m202 0 c0 -6 -9 -8
-20 -4 -12 4 -20 2 -20 -5 0 -7 9 -14 21 -17 31 -9 21 -47 -13 -51 -19 -2 -28
1 -28 11 0 10 8 13 27 9 26 -5 27 -4 11 11 -9 10 -21 17 -27 17 -12 0 -15 23
-4 33 10 11 53 8 53 -4z m258 -11 c3 -14 -3 -18 -28 -18 -36 0 -37 -23 -2 -28
29 -4 28 -22 -1 -22 -30 0 -47 18 -47 50 0 35 8 42 45 38 19 -2 31 -9 33 -20z
m120 -17 c2 -18 -1 -38 -7 -44 -8 -8 -11 0 -11 26 0 26 -4 37 -15 37 -11 0
-15 -11 -15 -36 0 -21 -4 -33 -10 -29 -5 3 -10 19 -10 36 0 16 -4 29 -10 29
-5 0 -10 -13 -10 -29 0 -17 -4 -33 -10 -36 -6 -4 -10 12 -10 40 l0 46 53 -3
c51 -3 52 -4 55 -37z m88 15 c11 -45 2 -61 -36 -61 -29 0 -36 4 -38 22 -3 17
4 26 25 34 l28 12 -25 7 c-24 8 -23 8 7 9 27 1 34 -4 39 -23z m74 13 c0 -6 -9
-8 -20 -4 -12 4 -20 2 -20 -5 0 -7 9 -14 21 -17 31 -9 21 -47 -13 -51 -19 -2
-28 1 -28 11 0 10 8 13 27 9 26 -5 27 -4 11 11 -9 10 -21 17 -27 17 -12 0 -15
23 -4 33 10 11 53 8 53 -4z m106 0 c4 -8 9 -8 17 0 6 6 42 11 79 11 l68 0 0
-46 c0 -27 -4 -43 -10 -39 -5 3 -10 19 -10 36 0 16 -4 29 -10 29 -5 0 -10 -13
-10 -29 0 -17 -4 -33 -10 -36 -6 -4 -10 8 -10 29 0 25 -4 36 -15 36 -11 0 -15
-11 -15 -36 0 -21 -4 -33 -10 -29 -5 3 -10 23 -10 43 0 33 -1 35 -16 20 -12
-12 -14 -20 -5 -36 16 -30 13 -37 -8 -18 -16 15 -19 15 -31 1 -18 -21 -24 -11
-9 13 11 18 10 24 -5 41 -17 18 -17 21 -3 21 9 0 19 -5 23 -11z m269 1 c-3 -5
-12 -7 -20 -3 -8 3 -15 0 -15 -7 0 -6 9 -14 20 -17 11 -3 21 -10 21 -17 1 -6
4 3 8 19 11 55 88 40 79 -16 -5 -34 -31 -46 -63 -29 -21 11 -28 12 -34 1 -5
-7 -17 -10 -30 -7 -27 8 -25 22 3 18 17 -3 18 -2 7 12 -7 9 -20 16 -27 16 -14
0 -19 22 -7 33 10 11 65 8 58 -3z m181 -14 c11 -45 2 -61 -36 -61 -29 0 -36 4
-38 22 -3 17 4 26 25 34 l28 12 -25 7 c-24 8 -23 8 7 9 27 1 34 -4 39 -23z
m92 -9 c4 -31 -12 -57 -36 -57 -8 0 -21 -8 -28 -17 -12 -16 -13 -10 -14 45 l0
63 38 -3 c32 -3 37 -7 40 -31z m142 19 c28 -35 -11 -93 -47 -70 -19 12 -28 46
-19 70 7 18 50 18 66 0z m58 3 c-11 -6 -18 -22 -18 -39 0 -16 -4 -32 -10 -35
-6 -4 -10 12 -10 39 0 44 1 46 28 46 23 -1 24 -2 10 -11z m102 -30 c0 -53 -15
-79 -45 -79 -34 0 -32 20 3 21 20 1 22 2 7 6 -32 8 -45 23 -45 53 0 35 6 40
47 40 32 0 33 -1 33 -41z m130 30 c0 -6 -9 -8 -20 -4 -12 4 -20 2 -20 -5 0 -7
9 -14 21 -17 31 -9 21 -47 -13 -51 -19 -2 -28 1 -28 11 0 10 8 13 27 9 26 -5
27 -4 11 11 -9 10 -21 17 -27 17 -12 0 -15 23 -4 33 10 11 53 8 53 -4z m85
-28 c0 -41 -25 -62 -52 -45 -41 26 -21 87 26 82 22 -3 26 -8 26 -37z m93 -8
c3 -43 3 -43 -32 -43 -27 0 -36 5 -41 21 -7 22 7 39 33 39 21 0 13 18 -10 23
-13 3 -7 4 12 4 34 -2 35 -4 38 -44z m95 25 c8 -29 -17 -68 -43 -68 -11 0 -20
-7 -20 -16 0 -8 -4 -12 -10 -9 -5 3 -10 31 -10 61 l0 54 39 0 c32 0 40 -4 44
-22z m145 0 c2 -11 -5 -18 -23 -20 -33 -4 -33 -22 0 -26 14 -2 25 -8 25 -13 0
-13 -54 -11 -68 3 -16 16 -15 51 0 66 18 18 62 11 66 -10z m92 -24 c0 -27 -4
-43 -10 -39 -5 3 -10 19 -10 34 0 15 -3 31 -7 34 -12 13 -33 -16 -33 -45 0
-17 -4 -27 -10 -23 -5 3 -10 24 -10 46 0 39 0 39 40 39 l40 0 0 -46z m44 19
l14 -28 7 28 c4 15 11 27 16 27 13 0 11 -12 -7 -55 -17 -41 -24 -39 -48 18
-17 43 -4 51 18 10z m134 5 c2 -11 -5 -18 -23 -20 -33 -4 -33 -22 0 -26 14 -2
25 -8 25 -13 0 -13 -54 -11 -68 3 -16 16 -15 51 0 66 18 18 62 11 66 -10z
m117 -17 c0 -41 -25 -62 -52 -45 -41 26 -21 87 26 82 22 -3 26 -8 26 -37z m95
22 c0 -15 2 -15 19 1 23 21 65 18 69 -6 2 -11 -5 -18 -23 -20 -33 -4 -33 -22
0 -26 35 -5 31 -22 -5 -22 -19 0 -34 7 -42 19 -12 20 -12 20 -26 0 -7 -10 -22
-19 -33 -19 -11 0 -19 -7 -19 -16 0 -8 -4 -12 -10 -9 -5 3 -10 31 -10 61 l0
54 40 0 c31 0 40 -4 40 -17z m-3070 -3 c0 -5 -20 -10 -45 -10 -25 0 -45 5 -45
10 0 6 20 10 45 10 25 0 45 -4 45 -10z m0 -30 c0 -5 -20 -10 -45 -10 -25 0
-45 5 -45 10 0 6 20 10 45 10 25 0 45 -4 45 -10z m-2160 -25 c0 -8 -4 -15 -10
-15 -5 0 -10 7 -10 15 0 8 5 15 10 15 6 0 10 -7 10 -15z m1278 4 c-2 -6 -8
-10 -13 -10 -5 0 -11 4 -13 10 -2 6 4 11 13 11 9 0 15 -5 13 -11z m1230 0 c-2
-6 -8 -10 -13 -10 -5 0 -11 4 -13 10 -2 6 4 11 13 11 9 0 15 -5 13 -11z m792
2 c0 -6 -4 -13 -10 -16 -5 -3 -10 1 -10 9 0 9 5 16 10 16 6 0 10 -4 10 -9z
m640 -7 c0 -8 -4 -12 -10 -9 -5 3 -10 10 -10 16 0 5 5 9 10 9 6 0 10 -7 10
-16z"/>
<path d="M3920 5915 c-18 -21 -5 -45 25 -45 21 0 25 5 25 30 0 23 -5 30 -19
30 -10 0 -24 -7 -31 -15z"/>
<path d="M498 5934 c-15 -32 0 -59 33 -59 26 0 35 21 25 61 -9 33 -43 32 -58
-2z"/>
<path d="M720 5941 c0 -11 4 -22 8 -25 14 -9 35 12 29 28 -9 23 -37 20 -37 -3z"/>
<path d="M636 5921 c-4 -7 -5 -15 -2 -18 9 -9 19 4 14 18 -4 11 -6 11 -12 0z"/>
<path d="M870 5945 c0 -9 9 -15 25 -15 14 0 25 -4 25 -10 0 -5 -11 -10 -25
-10 -18 0 -25 -5 -25 -20 0 -16 7 -20 35 -20 35 0 35 0 35 45 0 45 0 45 -35
45 -24 0 -35 -5 -35 -15z"/>
<path d="M2592 5948 c-23 -23 -11 -78 17 -78 23 0 41 20 41 45 0 23 -17 45
-35 45 -6 0 -16 -5 -23 -12z"/>
<path d="M2803 5944 c-8 -21 13 -42 28 -27 13 13 5 43 -11 43 -6 0 -13 -7 -17
-16z"/>
<path d="M2716 5923 c-11 -11 -6 -23 9 -23 8 0 15 4 15 9 0 13 -16 22 -24 14z"/>
<path d="M3526 5923 c-12 -13 -6 -53 9 -53 9 0 15 9 15 24 0 26 -12 40 -24 29z"/>
<path d="M3577 5924 c-4 -4 -7 -18 -7 -31 0 -17 6 -23 21 -23 16 0 20 5 17 27
-3 26 -18 39 -31 27z"/>
<path d="M1495 5920 c4 -6 11 -8 16 -5 14 9 11 15 -7 15 -8 0 -12 -5 -9 -10z"/>
<path d="M1610 5915 c-15 -18 -6 -45 15 -45 9 0 15 9 15 24 0 31 -14 40 -30
21z"/>
<path d="M1697 5924 c-4 -4 -7 -18 -7 -31 0 -17 6 -23 21 -23 16 0 20 5 17 27
-3 26 -18 39 -31 27z"/>
<path d="M1795 5920 c4 -6 11 -8 16 -5 14 9 11 15 -7 15 -8 0 -12 -5 -9 -10z"/>
<path d="M4085 5920 c3 -5 10 -10 16 -10 5 0 9 5 9 10 0 6 -7 10 -16 10 -8 0
-12 -4 -9 -10z"/>
<path d="M4295 5889 c-10 -15 1 -23 20 -15 9 3 13 10 10 16 -8 13 -22 13 -30
-1z"/>
<path d="M4834 5915 c-8 -21 3 -47 19 -43 6 3 13 14 15 25 4 24 -26 40 -34 18z"/>
<path d="M4925 5889 c-10 -15 1 -23 20 -15 9 3 13 10 10 16 -8 13 -22 13 -30
-1z"/>
<path d="M5017 5924 c-4 -4 -7 -18 -7 -31 0 -17 6 -23 21 -23 16 0 20 5 17 27
-3 26 -18 39 -31 27z"/>
<path d="M5164 5915 c-8 -21 3 -47 19 -43 6 3 13 14 15 25 4 24 -26 40 -34 18z"/>
<path d="M5317 5924 c-4 -4 -7 -18 -7 -31 0 -17 6 -23 21 -23 16 0 20 5 17 27
-3 26 -18 39 -31 27z"/>
<path d="M5540 5915 c-15 -18 -6 -45 15 -45 9 0 15 9 15 24 0 31 -14 40 -30
21z"/>
<path d="M5633 5893 c-20 -8 -15 -23 7 -23 11 0 20 7 20 15 0 15 -6 17 -27 8z"/>
<path d="M5717 5924 c-4 -4 -7 -18 -7 -31 0 -17 6 -23 21 -23 16 0 20 5 17 27
-3 26 -18 39 -31 27z"/>
<path d="M5875 5920 c4 -6 11 -8 16 -5 14 9 11 15 -7 15 -8 0 -12 -5 -9 -10z"/>
<path d="M6145 5920 c4 -6 11 -8 16 -5 14 9 11 15 -7 15 -8 0 -12 -5 -9 -10z"/>
<path d="M6260 5915 c-15 -18 -6 -45 15 -45 9 0 15 9 15 24 0 31 -14 40 -30
21z"/>
<path d="M6347 5924 c-4 -4 -7 -18 -7 -31 0 -17 6 -23 21 -23 16 0 20 5 17 27
-3 26 -18 39 -31 27z"/>
<path d="M6445 5920 c4 -6 11 -8 16 -5 14 9 11 15 -7 15 -8 0 -12 -5 -9 -10z"/>
<path d="M150 5905 l0 -66 63 3 62 3 0 60 0 60 -62 3 -63 3 0 -66z m120 23 c0
-69 -8 -78 -61 -78 l-49 0 0 55 0 55 55 0 55 0 0 -32z"/>
<path d="M188 5903 c12 -2 32 -2 45 0 12 2 2 4 -23 4 -25 0 -35 -2 -22 -4z"/>
<path d="M1940 5730 c0 -13 -7 -20 -20 -20 -11 0 -25 -9 -32 -19 -12 -19 -12
-19 -26 0 -16 23 -57 22 -58 -1 0 -8 -4 -23 -8 -32 -14 -30 1 -48 39 -48 25 0
35 4 35 16 0 14 1 14 16 0 21 -22 74 -21 74 1 0 15 1 15 18 0 20 -18 72 -23
72 -7 0 6 -11 10 -25 10 -35 0 -31 17 5 22 26 4 30 1 30 -19 0 -13 5 -23 10
-23 6 0 10 14 10 30 0 18 6 33 15 36 8 4 15 12 15 20 0 17 -38 13 -49 -5 -6
-9 -11 -8 -21 4 -18 22 -46 19 -64 -7 -16 -22 -16 -21 -16 20 0 23 -4 42 -10
42 -5 0 -10 -9 -10 -20z m0 -69 c0 -11 -5 -23 -11 -27 -15 -9 -33 12 -26 30 9
23 37 20 37 -3z m-95 -21 c-3 -5 -13 -10 -21 -10 -8 0 -12 5 -9 10 3 6 13 10
21 10 8 0 12 -4 9 -10z"/>
<path d="M2380 5720 c0 -26 -3 -29 -17 -22 -26 13 -130 9 -144 -5 -10 -10 -15
-9 -25 5 -18 25 -30 6 -14 -23 11 -20 11 -27 0 -40 -7 -8 -10 -19 -6 -23 4 -4
13 1 21 11 10 14 14 15 24 3 6 -7 23 -13 36 -13 22 0 25 4 25 33 0 19 5 34 10
34 6 0 10 -16 10 -35 0 -44 18 -46 22 -2 4 41 22 42 26 1 3 -29 6 -31 43 -31
38 0 39 1 39 34 0 27 4 34 18 31 11 -2 18 -14 20 -36 4 -40 20 -42 24 -2 l3
29 25 -20 c24 -20 24 -21 3 -16 -15 3 -23 0 -23 -9 0 -18 57 -19 63 -1 6 18
-3 37 -19 37 -8 0 -14 5 -14 11 0 6 7 8 16 5 11 -4 14 -1 12 11 -4 24 -39 29
-54 9 -10 -15 -13 -15 -24 -1 -9 11 -22 14 -46 9 -32 -6 -34 -4 -34 20 0 14
-4 26 -10 26 -5 0 -10 -14 -10 -30z m-122 -69 c3 -16 -1 -22 -10 -19 -7 3 -15
15 -16 27 -3 16 1 22 10 19 7 -3 15 -15 16 -27z"/>
<path d="M3512 5728 c2 -15 11 -24 26 -26 19 -3 22 -9 22 -48 0 -51 17 -60 22
-12 2 22 9 34 21 36 14 3 17 -4 17 -32 0 -20 5 -36 10 -36 6 0 10 20 10 45 0
43 -2 46 -30 52 -21 4 -30 11 -30 24 0 15 -7 19 -36 19 -31 0 -35 -3 -32 -22z"/>
<path d="M3966 5741 c-3 -4 -12 -33 -20 -62 -8 -30 -18 -65 -22 -78 -5 -18 -4
-23 7 -19 8 2 21 33 31 69 9 35 19 72 23 82 7 17 -9 25 -19 8z"/>
<path d="M4026 5741 c-3 -4 -12 -33 -20 -62 -8 -30 -18 -65 -22 -78 -5 -18 -4
-23 7 -19 8 2 21 33 31 69 9 35 19 72 23 82 7 17 -9 25 -19 8z"/>
<path d="M4190 5731 c0 -14 -8 -21 -27 -23 -17 -2 -32 -12 -38 -25 -10 -25
-39 -31 -51 -11 -5 8 -2 9 9 5 9 -3 19 -1 23 4 10 18 -13 32 -40 25 -35 -9
-34 -41 2 -61 l27 -16 -27 6 c-21 4 -28 1 -28 -10 0 -18 50 -21 67 -4 8 8 13
8 17 0 4 -6 25 -11 46 -11 36 0 39 2 42 32 2 22 9 34 21 36 14 3 17 -4 17 -32
0 -20 5 -36 10 -36 6 0 10 10 10 22 l0 22 16 -22 c15 -22 74 -32 74 -12 0 6
-11 10 -25 10 -35 0 -31 17 5 22 26 4 30 1 30 -19 0 -35 18 -27 22 10 2 17 8
32 13 32 6 0 11 -15 13 -32 4 -44 22 -42 22 2 0 19 5 35 10 35 6 0 10 -16 10
-35 0 -19 5 -35 10 -35 6 0 10 5 10 12 0 9 3 9 12 0 16 -16 78 -16 78 1 0 9 2
9 9 -1 5 -8 21 -12 37 -10 21 2 30 9 32 26 2 14 -2 22 -12 22 -8 0 -18 5 -21
11 -4 6 0 9 11 7 25 -4 25 26 1 30 -21 4 -47 -15 -47 -34 0 -7 12 -21 28 -29
27 -16 27 -16 2 -11 -14 3 -28 6 -32 6 -5 0 -8 11 -8 24 0 13 -7 29 -15 36
-19 16 -51 8 -47 -12 1 -8 -5 -21 -13 -28 -13 -11 -15 -9 -15 14 0 14 -3 26
-7 27 -63 8 -89 7 -99 -6 -10 -13 -13 -13 -24 0 -18 22 -46 18 -64 -7 -13 -19
-16 -20 -16 -5 0 11 -10 20 -30 24 -21 4 -30 11 -30 24 0 11 -4 19 -10 19 -5
0 -10 -9 -10 -19z m0 -77 c0 -21 -4 -25 -22 -22 -15 2 -24 11 -26 26 -3 18 1
22 22 22 21 0 26 -5 26 -26z m355 -14 c-3 -5 -13 -10 -21 -10 -8 0 -12 5 -9
10 3 6 13 10 21 10 8 0 12 -4 9 -10z"/>
<path d="M4930 5720 c0 -26 -3 -29 -17 -22 -26 13 -130 9 -144 -5 -10 -10 -15
-9 -25 5 -18 25 -30 6 -14 -23 11 -20 11 -27 0 -40 -7 -8 -10 -19 -6 -23 4 -4
13 1 21 11 10 14 14 15 24 3 6 -7 23 -13 36 -13 22 0 25 4 25 33 0 19 5 34 10
34 6 0 10 -16 10 -35 0 -44 18 -46 22 -2 4 41 22 42 26 1 3 -26 8 -31 27 -31
19 0 25 5 27 28 l3 28 25 -20 c24 -20 24 -21 3 -16 -15 3 -23 0 -23 -9 0 -18
56 -19 63 -1 4 10 7 10 18 0 19 -18 56 -16 63 4 6 15 8 15 20 -2 9 -13 22 -16
49 -13 31 3 37 1 37 -14 0 -10 5 -18 10 -18 6 0 10 7 10 15 0 9 9 15 25 15 24
0 45 25 45 54 0 38 -74 64 -87 31 -5 -14 -7 -14 -23 0 -23 21 -55 16 -55 -9 0
-28 -19 -30 -30 -4 -14 31 -56 31 -70 1 -10 -23 -45 -32 -45 -12 0 6 7 8 16 5
11 -4 14 -1 12 11 -5 25 -39 29 -55 7 -12 -16 -13 -14 -13 19 0 20 -4 37 -10
37 -5 0 -10 -14 -10 -30z m-122 -69 c3 -16 -1 -22 -10 -19 -7 3 -15 15 -16 27
-3 16 1 22 10 19 7 -3 15 -15 16 -27z m280 7 c-4 -27 -23 -34 -32 -13 -8 21 1
35 20 35 10 0 14 -8 12 -22z m182 -3 c0 -18 -5 -25 -20 -25 -20 0 -28 28 -13
43 15 16 33 6 33 -18z m-95 -15 c-3 -5 -13 -10 -21 -10 -8 0 -12 5 -9 10 3 6
13 10 21 10 8 0 12 -4 9 -10z"/>
<path d="M5646 5741 c-3 -4 -12 -33 -20 -62 -8 -30 -18 -65 -22 -78 -5 -18 -4
-23 7 -19 8 2 21 33 31 69 9 35 19 72 23 82 7 17 -9 25 -19 8z"/>
<path d="M6031 5683 c-12 -36 -21 -75 -21 -85 0 -28 19 -21 26 10 3 15 9 38
14 52 16 47 22 90 12 90 -6 0 -20 -30 -31 -67z"/>
<path d="M6430 5720 c0 -29 -13 -40 -25 -20 -11 18 -44 10 -60 -14 -12 -18
-13 -30 -5 -50 9 -24 14 -26 60 -25 38 2 50 6 50 18 1 14 2 13 11 -1 12 -22
47 -23 70 -2 13 11 17 12 16 2 -1 -31 4 -48 13 -48 6 0 10 7 10 15 0 8 8 15
19 15 10 0 24 7 32 16 11 14 13 14 21 0 10 -18 78 -23 78 -6 0 6 -11 10 -24
10 -14 0 -28 5 -31 10 -4 6 5 10 20 10 30 0 43 24 25 45 -16 19 -44 19 -60 0
-12 -14 -15 -14 -30 0 -20 18 -43 19 -71 3 -17 -10 -23 -10 -26 0 -7 20 -41
14 -57 -10 -16 -22 -16 -21 -16 20 0 23 -4 42 -10 42 -5 0 -10 -13 -10 -30z
m80 -66 c0 -31 -23 -28 -28 4 -2 15 2 22 12 22 11 0 16 -9 16 -26z m95 1 c0
-11 -8 -21 -17 -23 -14 -3 -18 3 -18 23 0 20 4 26 18 23 9 -2 17 -12 17 -23z
m-175 -16 c0 -12 -57 -12 -65 0 -3 5 7 11 22 13 32 4 43 1 43 -13z"/>
<path d="M6751 5683 c-12 -36 -21 -75 -21 -85 0 -23 17 -24 23 0 29 108 32
113 50 108 28 -7 47 3 47 25 0 15 -7 19 -39 19 l-39 0 -21 -67z"/>
<path d="M6936 5741 c-3 -4 -12 -33 -20 -62 -8 -30 -18 -65 -22 -78 -5 -18 -4
-23 7 -19 8 2 21 33 31 69 9 35 19 72 23 82 7 17 -9 25 -19 8z"/>
<path d="M802 5728 c-19 -19 -15 -58 7 -58 23 0 47 -25 31 -35 -5 -3 -19 -3
-30 0 -14 5 -20 2 -20 -9 0 -11 9 -16 28 -16 56 0 73 54 22 71 -35 13 -40 31
-7 29 36 -3 40 -1 27 15 -15 18 -42 19 -58 3z"/>
<path d="M897 5722 c-20 -22 -22 -83 -5 -100 16 -16 59 -15 81 2 10 8 17 27
17 48 0 59 -57 90 -93 50z m57 -18 c9 -3 16 -16 16 -28 0 -47 -55 -65 -66 -21
-11 46 8 65 50 49z"/>
<path d="M1020 5699 c-21 -46 -26 -89 -11 -89 5 0 11 7 15 15 3 8 15 15 26 15
11 0 20 -7 20 -15 0 -9 9 -15 25 -15 18 0 25 5 25 20 0 13 7 20 18 20 24 0 42
19 42 46 0 28 -23 46 -52 42 -20 -3 -24 -10 -28 -53 l-6 -50 -12 41 c-7 23
-19 47 -27 54 -13 10 -18 5 -35 -31z m140 -4 c0 -8 -9 -15 -20 -15 -11 0 -20
7 -20 15 0 8 9 15 20 15 11 0 20 -7 20 -15z m-105 -25 c3 -5 -1 -10 -9 -10 -9
0 -16 5 -16 10 0 6 4 10 9 10 6 0 13 -4 16 -10z"/>
<path d="M1257 5734 c-4 -4 -7 -18 -7 -30 0 -16 -7 -24 -22 -26 -13 -2 -23 -7
-23 -13 0 -5 10 -11 23 -13 14 -2 22 -10 22 -23 0 -16 7 -19 54 -19 l55 0 3
43 3 42 28 -42 c15 -24 32 -43 37 -43 6 0 10 26 11 58 l0 57 19 -55 c11 -30
20 -56 20 -57 0 -2 4 -3 9 -3 5 0 17 24 25 54 19 63 19 66 7 66 -5 0 -15 -17
-22 -37 -7 -21 -13 -33 -15 -28 -1 6 -5 22 -8 38 -5 20 -12 27 -31 27 -20 0
-25 -5 -25 -25 0 -31 -15 -32 -31 -2 -6 12 -13 24 -15 26 -7 7 -110 12 -117 5z
m83 -59 c0 -45 0 -45 -35 -45 -28 0 -35 4 -35 20 0 16 7 20 30 20 17 0 30 5
30 10 0 6 -13 10 -30 10 -40 0 -38 18 3 23 17 2 33 5 35 5 1 1 2 -18 2 -43z"/>
<path d="M2642 5728 c-20 -20 -14 -46 15 -60 41 -20 43 -43 4 -35 -24 5 -31 3
-28 -6 2 -6 19 -12 38 -12 30 0 34 3 37 28 3 23 -2 30 -30 41 -27 12 -30 16
-15 21 9 4 24 4 33 1 11 -4 14 -1 12 12 -4 21 -48 28 -66 10z"/>
<path d="M2737 5722 c-38 -42 -10 -112 44 -112 36 0 49 18 49 67 0 32 -5 45
-19 53 -29 15 -56 12 -74 -8z m69 -27 c11 -27 -5 -65 -26 -65 -28 0 -48 44
-30 65 16 19 49 19 56 0z"/>
<path d="M2870 5714 c-6 -14 -10 -31 -10 -39 0 -8 -4 -17 -10 -20 -12 -8 -13
-45 -1 -45 5 0 11 7 15 15 3 8 15 15 26 15 11 0 23 -7 26 -15 9 -22 54 -20 54
3 0 9 13 23 30 30 52 23 30 87 -27 80 -23 -2 -28 -8 -25 -26 1 -13 -2 -31 -7
-40 -9 -15 -10 -15 -16 3 -23 72 -39 83 -55 39z m133 -19 c1 -5 -6 -11 -15
-13 -11 -2 -18 3 -18 13 0 17 30 18 33 0z m-103 -25 c0 -5 -4 -10 -10 -10 -5
0 -10 5 -10 10 0 6 5 10 10 10 6 0 10 -4 10 -10z"/>
<path d="M3099 5733 c-1 -5 -2 -17 -3 -28 -1 -11 -9 -21 -21 -23 -37 -7 -40
-21 -7 -28 22 -5 31 -12 30 -23 -2 -13 8 -17 55 -19 l57 -3 0 43 0 43 26 -42
c14 -24 29 -43 34 -43 5 0 10 26 12 58 l3 57 19 -57 c27 -79 38 -77 61 13 11
40 11 49 0 49 -7 0 -16 -17 -20 -37 -4 -21 -10 -31 -12 -23 -12 41 -28 60 -49
60 -18 0 -23 -6 -26 -32 l-3 -33 -22 35 c-20 33 -26 36 -77 38 -31 1 -57 -1
-57 -5z m91 -33 c0 -5 -16 -10 -35 -10 -19 0 -35 5 -35 10 0 6 16 10 35 10 19
0 35 -4 35 -10z m0 -50 c0 -16 -7 -20 -35 -20 -28 0 -35 4 -35 20 0 16 7 20
35 20 28 0 35 -4 35 -20z"/>
<path d="M1598 5707 c-6 -32 2 -97 13 -97 5 0 9 14 9 30 0 25 4 30 25 30 21 0
25 -5 25 -30 0 -16 5 -30 10 -30 6 0 10 10 10 22 l0 22 16 -22 c15 -22 74 -32
74 -12 0 6 -11 10 -25 10 -14 0 -25 5 -25 10 0 6 11 10 25 10 17 0 25 5 25 18
0 43 -49 56 -74 20 -16 -22 -16 -22 -16 10 0 17 -4 32 -10 32 -5 0 -10 -9 -10
-20 0 -15 -7 -20 -25 -20 -18 0 -25 5 -25 20 0 28 -17 25 -22 -3z"/>
<path d="M3663 5710 c-9 -13 -9 -21 -2 -26 6 -3 8 -15 6 -26 -3 -11 -3 -26 0
-34 6 -16 43 -19 43 -4 0 6 -5 10 -11 10 -6 0 -9 12 -7 28 4 35 33 37 34 2 2
-46 4 -50 24 -50 11 0 20 -7 20 -15 0 -8 5 -15 10 -15 6 0 10 7 10 15 0 9 9
15 25 15 24 0 45 25 45 54 0 26 -30 46 -70 46 -22 0 -40 5 -42 12 -3 9 -10 7
-23 -6 -17 -17 -20 -17 -30 -2 -15 20 -18 20 -32 -4z m107 -55 c0 -14 -4 -25
-10 -25 -5 0 -10 11 -10 25 0 14 5 25 10 25 6 0 10 -11 10 -25z m60 0 c0 -18
-5 -25 -20 -25 -20 0 -28 28 -13 43 15 16 33 6 33 -18z"/>
<path d="M726 5697 c-21 -12 -39 -27 -39 -32 0 -12 75 -55 86 -48 10 6 -12 26
-43 39 l-25 11 25 8 c24 8 50 28 50 39 0 10 -14 6 -54 -17z"/>
<path d="M6972 5708 c2 -7 20 -21 39 -30 19 -10 27 -18 18 -18 -19 0 -67 -36
-59 -44 8 -8 90 36 90 48 0 10 -71 56 -85 56 -4 0 -5 -6 -3 -12z"/>
<path d="M1554 5696 c-8 -22 3 -33 18 -18 9 9 9 15 0 24 -9 9 -13 7 -18 -6z"/>
<path d="M2585 5700 c-7 -12 2 -30 16 -30 12 0 12 27 0 35 -5 3 -12 1 -16 -5z"/>
<path d="M3875 5700 c-7 -12 2 -30 16 -30 12 0 12 27 0 35 -5 3 -12 1 -16 -5z"/>
<path d="M5372 5698 c-7 -7 -12 -24 -12 -38 0 -47 49 -68 76 -32 13 16 13 16
14 0 0 -32 20 -19 20 12 0 18 6 33 15 36 8 4 15 12 15 20 0 17 -38 13 -49 -5
-6 -9 -11 -8 -21 4 -15 18 -41 20 -58 3z m46 -40 c-4 -27 -23 -34 -32 -13 -8
21 1 35 20 35 10 0 14 -8 12 -22z"/>
<path d="M5522 5698 c-16 -16 -16 -63 1 -76 6 -5 21 -12 32 -15 15 -4 13 -5
-7 -6 -38 -1 -36 -21 2 -21 34 0 43 21 38 86 -3 33 -7 39 -28 42 -14 2 -31 -3
-38 -10z m48 -43 c0 -25 -23 -35 -35 -15 -10 16 2 40 20 40 9 0 15 -9 15 -25z"/>
<path d="M5673 5704 c-22 -10 -14 -43 15 -59 l27 -16 -27 6 c-21 4 -28 1 -28
-10 0 -18 50 -21 67 -4 8 8 13 8 17 0 10 -16 47 -13 68 6 17 15 18 15 18 0 0
-13 10 -17 45 -17 33 0 45 -4 45 -15 0 -8 5 -15 10 -15 6 0 10 7 10 15 0 8 8
15 18 15 25 0 42 20 42 50 0 31 -17 50 -45 50 -12 0 -26 -5 -33 -12 -9 -9 -15
-9 -24 0 -14 14 -54 16 -62 3 -4 -5 -1 -11 6 -13 12 -4 3 -28 -11 -28 -4 0
-14 11 -21 25 -7 14 -21 25 -30 25 -20 0 -53 -34 -43 -43 3 -4 -3 -7 -15 -7
-11 0 -24 5 -27 11 -4 6 0 9 11 7 12 -2 19 3 19 12 0 15 -30 23 -52 14z m117
-50 c0 -31 -23 -28 -28 4 -2 15 2 22 12 22 11 0 16 -9 16 -26z m185 1 c0 -11
-8 -21 -17 -23 -14 -3 -18 3 -18 23 0 20 4 26 18 23 9 -2 17 -12 17 -23z m-95
-15 c0 -5 -7 -10 -15 -10 -8 0 -15 5 -15 10 0 6 7 10 15 10 8 0 15 -4 15 -10z"/>
<path d="M6075 5686 c-12 -18 -13 -30 -5 -50 9 -24 14 -26 60 -25 50 2 50 2
50 36 0 27 4 34 18 31 11 -2 18 -14 20 -36 5 -47 22 -39 23 11 l0 42 19 -42
c11 -24 23 -43 28 -43 14 0 45 81 35 91 -7 7 -15 -1 -23 -21 l-13 -32 -11 27
c-9 22 -19 28 -46 30 -19 2 -45 -1 -59 -6 -16 -6 -28 -6 -35 1 -17 17 -45 11
-61 -14z m85 -47 c0 -12 -57 -12 -65 0 -3 5 7 11 22 13 32 4 43 1 43 -13z"/>
<path d="M3400 5680 c0 -5 20 -10 45 -10 25 0 45 5 45 10 0 6 -20 10 -45 10
-25 0 -45 -4 -45 -10z"/>
<path d="M3400 5650 c0 -5 20 -10 45 -10 25 0 45 5 45 10 0 6 -20 10 -45 10
-25 0 -45 -4 -45 -10z"/>
<path d="M1554 5636 c-8 -22 3 -33 18 -18 9 9 9 15 0 24 -9 9 -13 7 -18 -6z"/>
<path d="M2585 5640 c-7 -12 2 -30 16 -30 12 0 12 27 0 35 -5 3 -12 1 -16 -5z"/>
<path d="M3875 5640 c-7 -12 2 -30 16 -30 12 0 12 27 0 35 -5 3 -12 1 -16 -5z"/>
<path d="M4675 5637 c-4 -10 -5 -21 -1 -24 10 -10 18 4 13 24 -4 17 -4 17 -12
0z"/>
<path d="M5315 5640 c-7 -12 2 -30 16 -30 12 0 12 27 0 35 -5 3 -12 1 -16 -5z"/>
<path d="M1720 5490 c0 -13 -7 -20 -19 -20 -11 0 -26 -9 -34 -20 -13 -19 -13
-19 -27 0 -18 26 -46 25 -62 0 -17 -27 -30 -25 -23 3 8 30 -15 49 -52 45 -27
-3 -28 -4 -27 -63 1 -58 2 -60 28 -63 16 -2 36 4 46 13 16 14 18 14 23 0 8
-20 51 -19 68 1 11 14 13 14 21 0 6 -10 23 -16 43 -16 l35 0 0 70 c0 40 -4 70
-10 70 -5 0 -10 -9 -10 -20z m-190 -30 c0 -5 -7 -10 -15 -10 -8 0 -15 5 -15
10 0 6 7 10 15 10 8 0 15 -4 15 -10z m90 -46 c0 -31 -23 -28 -28 4 -2 15 2 22
12 22 11 0 16 -9 16 -26z m100 17 c0 -21 -13 -41 -26 -41 -8 0 -14 10 -14 25
0 18 5 25 20 25 11 0 20 -4 20 -9z m-182 -18 c-5 -26 -38 -29 -38 -4 0 15 6
21 21 21 14 0 19 -5 17 -17z"/>
<path d="M682 5488 c-19 -19 -15 -58 7 -58 23 0 47 -25 31 -35 -5 -3 -19 -3
-30 0 -14 5 -20 2 -20 -9 0 -11 9 -16 28 -16 56 0 73 54 22 71 -35 13 -40 31
-7 29 36 -3 40 -1 27 15 -15 18 -42 19 -58 3z"/>
<path d="M777 5482 c-20 -22 -22 -83 -5 -100 16 -16 59 -15 81 2 10 8 17 27
17 48 0 59 -57 90 -93 50z m57 -18 c9 -3 16 -16 16 -28 0 -47 -55 -65 -66 -21
-11 46 8 65 50 49z"/>
<path d="M900 5459 c-21 -46 -26 -89 -11 -89 5 0 11 7 15 15 3 8 15 15 26 15
11 0 20 -7 20 -15 0 -9 9 -15 25 -15 18 0 25 5 25 20 0 13 7 20 18 20 24 0 42
19 42 46 0 28 -23 46 -52 42 -20 -3 -24 -10 -28 -53 l-6 -50 -12 41 c-7 23
-19 47 -27 54 -13 10 -18 5 -35 -31z m140 -4 c0 -8 -9 -15 -20 -15 -11 0 -20
7 -20 15 0 8 9 15 20 15 11 0 20 -7 20 -15z m-105 -25 c3 -5 -1 -10 -9 -10 -9
0 -16 5 -16 10 0 6 4 10 9 10 6 0 13 -4 16 -10z"/>
<path d="M1137 5494 c-4 -4 -7 -18 -7 -30 0 -16 -7 -24 -22 -26 -13 -2 -23 -7
-23 -13 0 -5 10 -11 23 -13 14 -2 22 -10 22 -23 0 -16 7 -19 54 -19 l55 0 3
43 3 42 28 -42 c15 -24 32 -43 37 -43 6 0 10 26 11 58 l0 57 19 -55 c11 -30
20 -56 20 -57 0 -2 4 -3 9 -3 5 0 17 24 25 54 19 63 19 66 7 66 -5 0 -15 -17
-22 -37 l-13 -38 -9 38 c-7 30 -14 37 -33 37 -19 0 -24 -5 -24 -25 0 -31 -15
-32 -31 -2 -6 12 -13 24 -15 26 -7 7 -110 12 -117 5z m83 -59 c0 -45 0 -45
-35 -45 -28 0 -35 4 -35 20 0 16 7 20 30 20 17 0 30 5 30 10 0 6 -13 10 -30
10 -40 0 -38 18 3 23 17 2 33 5 35 5 1 1 2 -18 2 -43z"/>
<path d="M434 5476 c-3 -7 -4 -35 -2 -62 l3 -49 63 -3 62 -3 0 66 0 65 -60 0
c-42 0 -62 -4 -66 -14z m116 -51 l0 -55 -49 0 c-53 0 -61 9 -61 78 l0 32 55 0
55 0 0 -55z"/>
<path d="M478 5423 c12 -2 32 -2 45 0 12 2 2 4 -23 4 -25 0 -35 -2 -22 -4z"/>
<path d="M1434 5456 c-8 -22 3 -33 18 -18 9 9 9 15 0 24 -9 9 -13 7 -18 -6z"/>
<path d="M1800 5443 c-13 -27 -14 -27 -18 -5 -2 12 -10 22 -18 22 -17 0 -17
-3 0 -45 8 -18 12 -43 9 -54 -7 -26 15 -29 23 -3 3 9 13 34 22 55 19 47 3 73
-18 30z"/>
<path d="M1434 5396 c-8 -22 3 -33 18 -18 9 9 9 15 0 24 -9 9 -13 7 -18 -6z"/>
<path d="M1970 5250 c0 -15 -7 -20 -24 -20 -14 0 -32 -10 -40 -22 -12 -17 -16
-18 -16 -6 0 19 -38 28 -70 16 -14 -5 -27 -5 -34 2 -16 16 -45 12 -58 -10 -17
-27 -30 -25 -23 3 4 14 1 28 -7 35 -19 15 -140 11 -146 -5 -2 -8 6 -13 22 -13
34 0 33 -20 -4 -55 -16 -15 -27 -32 -24 -37 3 -4 36 -8 73 -8 50 0 72 4 82 16
11 14 13 14 21 -1 7 -11 23 -15 59 -14 48 2 49 3 49 35 0 18 6 34 14 37 20 8
26 -2 26 -40 0 -36 20 -47 21 -10 l0 22 9 -22 c8 -19 17 -23 49 -23 37 0 40 2
43 32 2 22 9 34 21 36 14 3 17 -4 17 -32 0 -20 5 -36 10 -36 6 0 10 20 10 45
0 43 -2 46 -30 52 -21 4 -30 11 -30 24 0 11 -4 19 -10 19 -5 0 -10 -9 -10 -20z
m-290 -30 c0 -5 -7 -10 -15 -10 -8 0 -15 5 -15 10 0 6 7 10 15 10 8 0 15 -4
15 -10z m290 -46 c0 -21 -4 -25 -22 -22 -15 2 -24 11 -26 26 -3 18 1 22 22 22
21 0 26 -5 26 -26z m-340 -4 c0 -15 -7 -20 -27 -20 -25 0 -26 0 -8 20 10 11
22 20 27 20 4 0 8 -9 8 -20z m58 3 c-5 -26 -38 -29 -38 -4 0 15 6 21 21 21 14
0 19 -5 17 -17z m122 -14 c0 -12 -57 -12 -65 0 -3 5 7 11 22 13 32 4 43 1 43
-13z"/>
<path d="M2180 5185 c0 -84 0 -85 25 -85 14 0 25 5 25 10 0 6 -7 10 -15 10
-12 0 -15 14 -15 65 0 51 3 65 15 65 8 0 15 5 15 10 0 6 -11 10 -25 10 -25 0
-25 -1 -25 -85z"/>
<path d="M2480 5240 c0 -26 -3 -29 -17 -22 -25 13 -120 9 -134 -5 -9 -9 -15
-8 -26 3 -22 21 -35 6 -17 -20 13 -21 13 -25 -1 -39 -19 -20 -19 -27 0 -27 9
0 18 7 22 16 5 13 7 13 14 2 5 -7 19 -14 33 -15 21 -1 25 3 28 30 4 42 22 41
26 0 4 -44 22 -42 22 2 0 19 5 35 10 35 6 0 10 -15 10 -33 0 -33 1 -34 39 -34
37 0 40 2 43 31 2 20 9 32 21 34 14 3 17 -4 17 -32 0 -20 5 -36 10 -36 6 0 10
6 10 13 0 9 2 9 9 -1 5 -8 21 -12 37 -10 21 2 30 9 32 26 2 14 -2 22 -12 22
-8 0 -18 5 -21 11 -4 6 0 9 11 7 12 -2 19 3 19 12 0 20 -39 25 -54 6 -12 -14
-15 -14 -28 0 -10 10 -26 13 -49 9 -31 -4 -34 -3 -34 20 0 14 -4 25 -10 25 -5
0 -10 -14 -10 -30z m-120 -65 c0 -14 -4 -25 -9 -25 -12 0 -23 29 -15 41 10 18
24 9 24 -16z m286 -23 c-9 -8 -56 12 -56 24 0 10 6 9 29 -4 16 -9 28 -18 27
-20z"/>
<path d="M3110 5240 c0 -29 -1 -30 -50 -30 -66 0 -64 -18 3 -23 l52 -3 -52 -2
c-67 -3 -70 -22 -3 -22 38 0 50 -4 50 -15 0 -29 19 -14 22 17 2 22 9 34 21 36
14 3 17 -4 17 -32 0 -20 5 -36 10 -36 6 0 10 20 10 45 0 43 -2 46 -30 52 -21
4 -30 11 -30 24 0 11 -4 19 -10 19 -5 0 -10 -13 -10 -30z"/>
<path d="M3516 5261 c-3 -4 -12 -33 -20 -62 -8 -30 -18 -65 -22 -78 -5 -18 -4
-23 7 -19 8 2 21 33 31 69 9 35 19 72 23 82 7 17 -9 25 -19 8z"/>
<path d="M3576 5261 c-3 -4 -12 -33 -20 -62 -8 -30 -18 -65 -22 -78 -5 -18 -4
-23 7 -19 7 2 21 29 29 58 l16 54 13 -42 c16 -48 28 -53 37 -16 l7 27 14 -27
c19 -37 30 -32 39 17 l7 42 15 -42 c19 -50 29 -54 38 -17 l7 27 14 -27 c19
-37 30 -32 39 17 l7 42 15 -42 c19 -50 29 -54 38 -17 l7 27 14 -27 c7 -14 17
-26 22 -26 8 0 21 47 21 76 0 24 -20 15 -20 -8 -1 -21 -2 -21 -17 6 l-15 29
-19 -24 c-15 -20 -19 -21 -19 -6 0 11 -8 17 -25 17 -19 0 -25 -5 -25 -22 -1
-21 -2 -21 -17 6 l-15 29 -19 -24 c-15 -20 -19 -21 -19 -6 0 11 -8 17 -25 17
-19 0 -25 -5 -25 -22 -1 -21 -2 -21 -17 6 l-15 29 -19 -24 c-15 -20 -19 -21
-19 -6 0 9 -5 17 -11 17 -7 0 -9 10 -5 25 6 24 -7 35 -18 16z"/>
<path d="M4550 5240 c0 -27 -2 -30 -19 -20 -11 5 -30 8 -43 7 -20 -3 -23 -11
-26 -50 -3 -53 15 -66 20 -15 2 22 9 34 21 36 13 3 17 -4 17 -31 0 -30 3 -34
25 -34 24 0 25 2 25 68 0 39 -4 69 -10 69 -5 0 -10 -14 -10 -30z"/>
<path d="M4626 5261 c-3 -4 -12 -33 -20 -62 -8 -30 -18 -65 -22 -78 -5 -18 -4
-23 7 -19 8 2 22 31 31 64 9 32 17 54 17 47 1 -7 13 -18 28 -25 41 -20 43 -43
4 -35 -24 5 -31 3 -28 -6 2 -6 19 -12 38 -12 30 0 34 3 37 28 3 23 -2 30 -30
41 -27 12 -30 16 -15 21 9 4 24 4 33 1 11 -4 14 -1 12 12 -2 12 -13 17 -36 17
-17 0 -32 3 -32 7 0 11 -18 10 -24 -1z"/>
<path d="M5011 5203 c-12 -36 -21 -75 -21 -85 0 -28 19 -21 26 10 9 43 33 99
33 80 1 -11 9 -18 20 -18 23 0 47 -25 31 -35 -5 -3 -19 -3 -30 0 -14 5 -20 2
-20 -9 0 -11 9 -16 28 -16 56 0 73 54 22 71 -36 13 -40 32 -5 27 28 -4 35 12
11 27 -11 7 -22 6 -36 -3 -17 -10 -20 -10 -20 3 0 36 -20 10 -39 -52z"/>
<path d="M5790 5261 c0 -6 5 -11 10 -11 6 0 10 -28 10 -65 0 -37 -4 -65 -10
-65 -5 0 -10 -5 -10 -11 0 -6 10 -9 23 -7 21 3 22 8 22 83 0 75 -1 80 -22 83
-13 2 -23 -1 -23 -7z"/>
<path d="M1137 5253 c-14 -13 -6 -23 18 -23 33 0 32 -20 -5 -55 -16 -15 -27
-32 -24 -37 7 -12 84 -10 84 2 0 6 -12 10 -27 10 l-26 0 21 23 c26 27 29 72 6
81 -20 8 -39 8 -47 -1z"/>
<path d="M1267 5253 c-2 -4 -3 -21 -2 -38 1 -16 3 -42 4 -57 1 -38 21 -36 21
2 0 28 3 30 34 30 30 0 35 -3 38 -27 6 -52 78 -39 78 14 0 43 -44 69 -68 40
-7 -8 -25 -11 -47 -9 -42 5 -46 19 -7 24 15 2 27 8 27 13 0 12 -71 19 -78 8z
m143 -79 c0 -31 -23 -28 -28 4 -2 15 2 22 12 22 11 0 16 -9 16 -26z"/>
<path d="M1462 5248 c-13 -13 -16 -75 -6 -102 7 -19 45 -21 62 -4 7 7 12 28
12 48 -1 57 -37 89 -68 58z m46 -48 c1 -14 -2 -31 -7 -39 -14 -22 -31 -3 -31
35 0 28 4 35 18 32 10 -2 18 -14 20 -28z"/>
<path d="M2917 5253 c-14 -13 -6 -23 18 -23 16 0 25 -6 25 -15 0 -8 -11 -25
-25 -37 -37 -32 -32 -48 15 -48 22 0 40 5 40 10 0 6 -12 10 -27 10 l-26 0 20
23 c31 34 35 45 23 67 -10 19 -49 27 -63 13z"/>
<path d="M4888 5253 c-13 -3 -18 -15 -18 -41 0 -46 -12 -65 -36 -60 -15 2 -20
14 -22 51 -3 45 -15 61 -25 35 -4 -10 -8 -9 -16 2 -9 13 -12 12 -25 -5 -10
-14 -11 -24 -4 -32 6 -7 8 -20 4 -28 -12 -32 4 -42 62 -43 38 0 63 5 75 15 15
15 17 15 17 0 0 -10 5 -17 10 -17 6 0 10 14 10 30 0 27 3 30 30 30 17 0 30 5
30 10 0 6 -13 10 -30 10 -38 0 -40 18 -2 22 15 2 27 8 27 13 0 11 -59 16 -87
8z m-98 -78 c0 -14 -4 -25 -10 -25 -5 0 -10 11 -10 25 0 14 5 25 10 25 6 0 10
-11 10 -25z"/>
<path d="M5293 5253 c-18 -4 -22 -12 -25 -51 -3 -40 -6 -47 -25 -50 -21 -3
-23 0 -23 47 0 28 -4 51 -10 51 -5 0 -10 -4 -10 -10 0 -14 -27 -12 -33 3 -10
24 -27 -17 -21 -53 9 -58 10 -58 70 -59 43 0 61 4 70 17 13 16 13 16 14 0 0
-31 20 -19 20 12 0 27 3 30 30 30 17 0 30 5 30 10 0 6 -13 10 -30 10 -16 0
-30 5 -30 10 0 6 14 10 30 10 20 0 30 5 30 15 0 15 -35 18 -87 8z m-93 -78 c0
-16 -6 -25 -15 -25 -9 0 -15 9 -15 25 0 16 6 25 15 25 9 0 15 -9 15 -25z"/>
<path d="M5402 5240 c-15 -25 -16 -82 0 -98 17 -17 55 -15 62 4 10 27 7 89 -6
102 -18 18 -42 15 -56 -8z m46 -47 c-4 -43 -25 -55 -34 -19 -8 33 1 56 21 56
13 0 15 -9 13 -37z"/>
<path d="M5500 5245 c0 -8 9 -15 20 -15 25 0 27 -20 3 -20 -17 -1 -17 -1 0
-14 9 -7 17 -21 17 -31 0 -13 -6 -16 -25 -12 -16 3 -24 0 -22 -7 5 -16 46 -20
63 -5 11 9 18 9 26 1 17 -17 55 -15 62 4 3 9 6 32 6 53 0 57 -33 79 -67 45
-15 -14 -17 -14 -25 0 -12 21 -58 21 -58 1z m128 -52 c-4 -43 -25 -55 -34 -19
-8 33 1 56 21 56 13 0 15 -9 13 -37z m-61 5 c-3 -8 -6 -5 -6 6 -1 11 2 17 5
13 3 -3 4 -12 1 -19z"/>
<path d="M720 5185 l0 -66 63 3 62 3 0 60 0 60 -62 3 -63 3 0 -66z m120 23 c0
-69 -8 -78 -61 -78 l-49 0 0 55 0 55 55 0 55 0 0 -32z"/>
<path d="M758 5183 c12 -2 32 -2 45 0 12 2 2 4 -23 4 -25 0 -35 -2 -22 -4z"/>
<path d="M2073 5230 c-9 -13 -9 -21 -2 -26 6 -3 8 -15 6 -26 -3 -11 -3 -26 0
-34 6 -16 43 -19 43 -4 0 6 -4 10 -10 10 -13 0 -13 47 0 55 9 6 -8 45 -20 45
-3 0 -11 -9 -17 -20z"/>
<path d="M3213 5230 c-9 -13 -9 -21 -2 -26 6 -3 8 -15 6 -26 -3 -11 -3 -26 0
-34 6 -16 43 -19 43 -4 0 6 -4 10 -10 10 -12 0 -14 47 -2 54 14 9 35 -12 29
-28 -9 -24 2 -46 24 -46 10 0 19 -7 19 -15 0 -8 5 -15 10 -15 6 0 10 7 10 15
0 9 9 15 25 15 24 0 45 25 45 54 0 26 -30 46 -70 46 -22 0 -40 5 -42 12 -3 9
-10 7 -23 -6 -17 -17 -20 -17 -30 -2 -15 20 -18 20 -32 -4z m107 -55 c0 -14
-4 -25 -10 -25 -5 0 -10 11 -10 25 0 14 5 25 10 25 6 0 10 -11 10 -25z m60 0
c0 -18 -5 -25 -20 -25 -20 0 -28 28 -13 43 15 16 33 6 33 -18z"/>
<path d="M5700 5239 c-11 -8 -12 -12 -2 -16 14 -6 16 -59 2 -68 -20 -12 -9
-25 20 -25 17 0 30 5 30 10 0 6 -4 10 -10 10 -5 0 -10 23 -10 50 0 52 -4 57
-30 39z"/>
<path d="M956 5222 c-10 -9 -7 -92 3 -92 6 0 11 15 13 32 2 22 9 34 21 36 14
3 17 -4 17 -32 0 -20 5 -36 10 -36 6 0 10 6 10 13 0 9 2 9 9 -1 5 -8 21 -12
37 -10 21 2 30 9 32 26 2 14 -2 22 -12 22 -8 0 -18 5 -21 11 -4 6 0 9 11 7 25
-4 25 26 1 30 -10 2 -27 -4 -37 -13 -13 -12 -19 -13 -22 -4 -4 13 -62 22 -72
11z m130 -70 c-9 -8 -56 12 -56 24 0 10 6 9 29 -4 16 -9 28 -18 27 -20z"/>
<path d="M1224 5216 c-8 -22 3 -33 18 -18 9 9 9 15 0 24 -9 9 -13 7 -18 -6z"/>
<path d="M2694 5216 c-8 -22 3 -33 18 -18 9 9 9 15 0 24 -9 9 -13 7 -18 -6z"/>
<path d="M2751 5219 c-15 -6 -21 -14 -17 -25 3 -9 6 -27 6 -40 0 -13 5 -24 10
-24 6 0 10 16 10 36 0 28 3 35 18 32 11 -2 18 -14 20 -36 4 -42 22 -42 23 1 0
17 3 26 6 20 2 -7 11 -13 18 -13 8 0 17 -5 21 -12 5 -8 0 -9 -14 -6 -15 4 -22
2 -22 -8 0 -18 56 -19 62 -1 7 18 -2 37 -18 37 -8 0 -14 5 -14 11 0 6 7 8 16
5 11 -4 14 -1 12 11 -4 24 -39 29 -54 9 -10 -14 -13 -15 -24 -1 -14 17 -25 18
-59 4z"/>
<path d="M3425 5220 c-7 -12 2 -30 16 -30 12 0 12 27 0 35 -5 3 -12 1 -16 -5z"/>
<path d="M4022 5218 c-7 -7 -12 -24 -12 -38 0 -14 5 -31 12 -38 14 -14 68 -16
68 -2 0 6 -11 10 -25 10 -34 0 -32 18 3 22 19 2 30 -3 37 -17 6 -10 21 -22 35
-26 l25 -7 -27 -1 c-37 -1 -36 -21 1 -21 30 0 41 14 41 53 l0 21 16 -22 c15
-22 74 -32 74 -12 0 6 -11 10 -25 10 -35 0 -31 17 5 22 26 4 30 1 30 -19 0
-35 18 -27 22 10 2 17 8 32 13 32 6 0 11 -15 13 -32 4 -44 22 -42 22 2 0 19 5
35 10 35 6 0 10 -16 10 -35 0 -19 5 -35 10 -35 11 0 14 89 3 91 -63 8 -89 7
-99 -6 -10 -13 -13 -13 -24 0 -18 21 -46 19 -63 -5 l-14 -21 -6 21 c-7 26 -51
27 -69 1 -14 -20 -14 -20 -26 0 -14 21 -42 25 -60 7z m138 -43 c0 -25 -23 -35
-35 -15 -10 16 2 40 20 40 9 0 15 -9 15 -25z"/>
<path d="M1224 5156 c-8 -22 3 -33 18 -18 9 9 9 15 0 24 -9 9 -13 7 -18 -6z"/>
<path d="M2694 5156 c-8 -22 3 -33 18 -18 9 9 9 15 0 24 -9 9 -13 7 -18 -6z"/>
<path d="M3425 5160 c-7 -12 2 -30 16 -30 12 0 12 27 0 35 -5 3 -12 1 -16 -5z"/>
<path d="M3965 5160 c-7 -12 2 -30 16 -30 12 0 12 27 0 35 -5 3 -12 1 -16 -5z"/>
<path d="M4415 5160 c-7 -12 2 -30 16 -30 12 0 12 27 0 35 -5 3 -12 1 -16 -5z"/>
<path d="M1417 5013 c-14 -13 -6 -23 18 -23 16 0 25 -6 25 -15 0 -8 -11 -25
-25 -37 -37 -32 -32 -48 15 -48 22 0 40 5 40 10 0 6 -12 10 -27 10 -24 1 -26
2 -12 13 28 22 41 55 29 77 -10 19 -49 27 -63 13z"/>
<path d="M1004 4996 c-3 -7 -4 -35 -2 -62 l3 -49 63 -3 62 -3 0 66 0 65 -60 0
c-42 0 -62 -4 -66 -14z m116 -51 l0 -55 -49 0 c-53 0 -61 9 -61 78 l0 32 55 0
55 0 0 -55z"/>
<path d="M1048 4943 c12 -2 32 -2 45 0 12 2 2 4 -23 4 -25 0 -35 -2 -22 -4z"/>
<path d="M1636 4993 c-2 -10 -2 -36 2 -58 l7 -40 63 -3 c42 -2 62 1 62 9 0 9
3 9 14 0 7 -6 34 -10 60 -10 45 2 46 3 46 35 0 20 6 34 16 38 27 10 7 22 -30
18 -27 -3 -36 -9 -36 -22 0 -29 -11 -50 -26 -50 -9 0 -14 12 -14 35 0 31 -3
35 -25 35 -18 0 -25 -5 -25 -19 0 -58 -37 -71 -42 -14 -2 27 -8 37 -23 39 -11
2 -21 8 -23 13 -6 17 -20 13 -26 -6z m54 -42 c0 -17 -12 -41 -21 -41 -5 0 -9
11 -9 25 0 16 6 25 15 25 8 0 15 -4 15 -9z"/>
<path d="M1251 4979 c-15 -6 -21 -14 -17 -25 3 -9 6 -27 6 -40 0 -13 5 -24 10
-24 6 0 10 16 10 36 0 28 3 35 18 32 11 -2 18 -14 20 -36 4 -42 22 -42 23 1 0
17 3 26 6 20 2 -7 11 -13 18 -13 8 0 17 -5 21 -12 5 -8 0 -9 -14 -6 -15 4 -22
2 -22 -8 0 -18 56 -19 62 -1 7 18 -2 37 -18 37 -8 0 -14 5 -14 11 0 6 7 8 16
5 11 -4 14 -1 12 11 -4 23 -32 28 -51 9 -13 -14 -16 -14 -27 -1 -14 17 -25 18
-59 4z"/>
<path d="M1505 4980 c-7 -12 2 -30 16 -30 12 0 12 27 0 35 -5 3 -12 1 -16 -5z"/>
<path d="M1562 4978 c-19 -19 -14 -36 16 -53 l27 -16 -27 6 c-21 4 -28 2 -28
-10 0 -12 8 -15 33 -13 24 2 33 8 35 26 2 14 -2 22 -12 22 -8 0 -18 5 -21 11
-4 6 0 9 11 7 12 -2 19 3 19 12 0 19 -36 25 -53 8z"/>
<path d="M1943 4978 c-30 -39 -21 -83 19 -91 20 -4 19 -4 -4 -6 -37 -1 -36
-21 0 -21 33 0 52 16 52 45 1 18 1 18 11 3 11 -19 79 -26 79 -8 0 6 -11 10
-24 10 -14 0 -28 5 -31 10 -4 6 6 10 24 10 20 0 34 -7 41 -19 5 -11 20 -22 32
-24 20 -4 19 -4 -4 -6 -37 -1 -36 -21 0 -21 33 0 52 16 52 44 1 19 1 19 11 4
11 -19 79 -26 79 -8 0 6 -11 10 -24 10 -14 0 -28 5 -31 10 -4 6 5 10 20 10 30
0 43 24 25 45 -18 21 -46 19 -63 -5 l-14 -21 -6 21 c-7 26 -51 27 -69 1 -14
-20 -14 -20 -26 0 -16 25 -47 24 -65 -1 l-14 -21 -6 21 c-6 23 -48 28 -64 8z
m47 -43 c0 -18 -5 -25 -20 -25 -15 0 -20 7 -20 25 0 18 5 25 20 25 15 0 20 -7
20 -25z m180 0 c0 -18 -5 -25 -20 -25 -15 0 -20 7 -20 25 0 18 5 25 20 25 15
0 20 -7 20 -25z"/>
<path d="M2288 4984 c-7 -11 28 -94 40 -94 7 0 42 68 42 83 0 17 -21 4 -34
-20 -9 -17 -15 -22 -16 -12 0 20 -26 54 -32 43z"/>
<path d="M2385 4966 c-12 -18 -13 -30 -5 -50 9 -24 14 -26 60 -25 50 2 50 2
50 36 0 27 4 34 18 31 11 -2 18 -14 20 -36 4 -42 22 -42 23 1 0 17 3 26 6 20
2 -7 11 -13 18 -13 8 0 17 -5 21 -12 5 -8 0 -9 -14 -6 -15 4 -22 2 -22 -8 0
-18 57 -19 63 -1 6 18 -3 37 -19 37 -8 0 -14 5 -14 11 0 6 7 8 16 5 11 -4 14
-1 12 11 -4 23 -32 28 -50 9 -11 -12 -15 -12 -30 1 -14 12 -23 13 -49 4 -22
-8 -36 -8 -43 -1 -17 17 -45 11 -61 -14z m85 -47 c0 -12 -57 -12 -65 0 -3 5 7
11 22 13 32 4 43 1 43 -13z"/>
<path d="M1505 4920 c-7 -12 2 -30 16 -30 12 0 12 27 0 35 -5 3 -12 1 -16 -5z"/>
<path d="M1839 4758 c-4 -102 -4 -103 25 -106 16 -2 36 4 46 13 16 14 18 14
24 0 4 -11 18 -15 56 -14 49 2 50 3 50 35 0 18 6 34 14 37 20 8 26 -2 26 -40
0 -36 20 -47 21 -10 l0 22 9 -22 c8 -19 17 -23 49 -23 37 0 40 2 43 32 2 22 9
34 21 36 14 3 17 -4 17 -32 0 -20 5 -36 10 -36 6 0 10 20 10 45 0 43 -2 46
-30 52 -21 4 -30 11 -30 24 0 11 -4 19 -10 19 -5 0 -10 -9 -10 -20 0 -15 -7
-20 -24 -20 -14 0 -32 -10 -40 -22 -12 -17 -16 -18 -16 -6 0 19 -38 28 -70 16
-14 -5 -27 -5 -34 2 -14 14 -37 12 -56 -5 -15 -14 -18 -14 -30 0 -7 8 -21 15
-31 15 -12 0 -19 7 -19 20 0 34 -20 22 -21 -12z m51 -63 c0 -16 -6 -25 -15
-25 -9 0 -15 9 -15 25 0 16 6 25 15 25 9 0 15 -9 15 -25z m290 -1 c0 -21 -4
-25 -22 -22 -15 2 -24 11 -26 26 -3 18 1 22 22 22 21 0 26 -5 26 -26z m-160
-15 c0 -12 -57 -12 -65 0 -3 5 7 11 22 13 32 4 43 1 43 -13z"/>
<path d="M2560 4770 c0 -13 -7 -20 -19 -20 -11 0 -26 -9 -34 -20 -13 -19 -13
-19 -27 0 -15 21 -45 27 -54 11 -4 -5 -19 -4 -36 2 -25 9 -33 9 -39 -2 -7 -11
-13 -9 -31 9 -21 21 -22 21 -35 3 -9 -12 -10 -22 -3 -30 6 -7 8 -20 4 -28 -13
-35 3 -42 92 -43 61 0 92 4 103 15 14 12 17 12 22 -2 9 -23 77 -21 77 3 1 16
1 16 11 0 11 -19 79 -26 79 -8 0 6 -11 10 -24 10 -14 0 -28 5 -31 10 -4 6 5
10 20 10 30 0 43 24 25 45 -18 22 -46 18 -64 -7 -16 -22 -16 -21 -16 20 0 23
-4 42 -10 42 -5 0 -10 -9 -10 -20z m-230 -70 c0 -16 -4 -30 -10 -30 -11 0 -14
43 -3 53 11 12 13 8 13 -23z m80 -1 c0 -27 -3 -30 -27 -27 -36 4 -43 35 -11
47 35 15 38 13 38 -20z m50 -5 c0 -31 -23 -28 -28 4 -2 15 2 22 12 22 11 0 16
-9 16 -26z m100 17 c0 -21 -13 -41 -26 -41 -8 0 -14 10 -14 25 0 18 5 25 20
25 11 0 20 -4 20 -9z"/>
<path d="M1707 4773 c-14 -13 -6 -23 18 -23 33 0 32 -20 -5 -55 -16 -15 -27
-32 -24 -37 7 -12 84 -10 84 2 0 6 -12 10 -27 10 l-26 0 21 23 c26 27 29 72 6
81 -20 8 -39 8 -47 -1z"/>
<path d="M1290 4705 l0 -66 63 3 62 3 0 60 0 60 -62 3 -63 3 0 -66z m118 32
c2 -11 1 -34 -3 -53 -6 -33 -7 -34 -55 -34 l-50 0 0 56 0 55 52 -3 c42 -2 54
-7 56 -21z"/>
<path d="M1328 4703 c12 -2 32 -2 45 0 12 2 2 4 -23 4 -25 0 -35 -2 -22 -4z"/>
<path d="M1526 4742 c-10 -9 -7 -92 3 -92 6 0 11 15 13 32 2 22 9 34 21 36 14
3 17 -4 17 -32 0 -20 5 -36 10 -36 6 0 10 6 10 13 0 9 2 9 9 -1 5 -8 21 -12
37 -10 21 2 30 9 32 26 2 14 -2 22 -12 22 -8 0 -18 5 -21 11 -4 6 0 9 11 7 25
-4 25 26 1 30 -10 2 -27 -4 -37 -13 -13 -12 -19 -13 -22 -4 -4 13 -62 22 -72
11z m130 -70 c-9 -8 -56 12 -56 24 0 10 6 9 29 -4 16 -9 28 -18 27 -20z"/>
<path d="M1794 4736 c-8 -22 3 -33 18 -18 9 9 9 15 0 24 -9 9 -13 7 -18 -6z"/>
<path d="M1794 4676 c-8 -22 3 -33 18 -18 9 9 9 15 0 24 -9 9 -13 7 -18 -6z"/>
<path d="M1807 4533 c-2 -4 -3 -21 -2 -38 1 -16 3 -42 4 -57 1 -38 21 -36 21
2 0 27 3 30 30 30 17 0 30 5 30 10 0 6 -13 10 -30 10 -38 0 -40 18 -2 22 15 2
27 8 27 13 0 12 -71 19 -78 8z"/>
<path d="M2002 4528 c-13 -13 -16 -75 -6 -102 7 -19 45 -21 62 -4 7 7 12 28
12 48 -1 57 -37 89 -68 58z m46 -48 c1 -14 -2 -31 -7 -39 -14 -22 -31 -3 -31
35 0 28 4 35 18 32 10 -2 18 -14 20 -28z"/>
<path d="M2097 4533 c-14 -13 -6 -23 18 -23 33 0 32 -20 -5 -55 -16 -15 -27
-32 -24 -37 7 -12 84 -10 84 2 0 6 -12 10 -27 10 l-26 0 21 23 c24 26 28 57
10 75 -13 13 -41 16 -51 5z"/>
<path d="M1911 4496 c-7 -8 -11 -30 -9 -48 2 -26 8 -34 26 -36 30 -5 52 14 52
45 0 44 -44 69 -69 39z m39 -42 c0 -31 -23 -28 -28 4 -2 15 2 22 12 22 11 0
16 -9 16 -26z"/>
<path d="M1550 4240 l0 -70 34 0 c22 0 36 6 40 16 6 16 8 16 24 0 10 -9 28
-16 39 -16 12 0 24 7 27 16 6 16 8 16 24 0 10 -9 31 -16 45 -16 27 0 27 1 27
70 0 40 -4 70 -10 70 -5 0 -10 -9 -10 -20 0 -13 -7 -20 -19 -20 -11 0 -26 -9
-33 -19 -14 -20 -14 -20 -26 0 -16 25 -48 25 -64 0 -12 -20 -12 -20 -26 0 -7
10 -22 19 -33 19 -12 0 -19 7 -19 20 0 11 -4 20 -10 20 -6 0 -10 -30 -10 -70z
m55 -26 c0 -10 -8 -20 -17 -22 -18 -3 -26 27 -11 42 12 11 28 0 28 -20z m90 1
c0 -10 -5 -20 -11 -22 -13 -4 -27 24 -18 38 9 15 29 4 29 -16z m95 6 c0 -11
-5 -23 -11 -27 -15 -9 -33 12 -26 30 9 23 37 20 37 -3z"/>
<path d="M1417 4293 c-14 -13 -6 -23 18 -23 16 0 25 -6 25 -15 0 -8 -11 -25
-25 -37 -37 -32 -32 -48 15 -48 22 0 40 5 40 10 0 6 -12 10 -27 10 -24 1 -26
2 -12 13 28 22 41 55 29 77 -10 19 -49 27 -63 13z"/>
<path d="M1004 4276 c-3 -7 -4 -35 -2 -62 l3 -49 63 -3 62 -3 0 66 0 65 -60 0
c-42 0 -62 -4 -66 -14z m116 -51 l0 -55 -49 0 c-52 0 -61 10 -61 71 0 35 6 39
62 39 l48 0 0 -55z"/>
<path d="M1048 4223 c12 -2 32 -2 45 0 12 2 2 4 -23 4 -25 0 -35 -2 -22 -4z"/>
<path d="M1251 4259 c-15 -6 -21 -14 -17 -25 3 -9 6 -27 6 -40 0 -13 5 -24 10
-24 6 0 10 16 10 36 0 28 3 35 18 32 11 -2 18 -14 20 -36 4 -42 22 -42 23 1 0
17 3 26 6 20 2 -7 11 -13 18 -13 8 0 17 -5 21 -12 5 -8 0 -9 -14 -6 -15 4 -22
2 -22 -8 0 -18 56 -19 62 -1 7 18 -2 37 -18 37 -8 0 -14 5 -14 11 0 6 7 8 16
5 11 -4 14 -1 12 11 -4 23 -32 28 -51 9 -13 -14 -16 -14 -27 -1 -14 17 -25 18
-59 4z"/>
<path d="M1505 4260 c-7 -12 2 -30 16 -30 12 0 12 27 0 35 -5 3 -12 1 -16 -5z"/>
<path d="M1878 4245 c-11 -26 -12 -26 -20 -6 -4 12 -14 21 -22 21 -13 0 -13
-4 0 -36 9 -20 13 -47 10 -60 -6 -23 7 -34 18 -16 19 31 44 112 36 117 -6 3
-15 -6 -22 -20z"/>
<path d="M1505 4200 c-7 -12 2 -30 16 -30 12 0 12 27 0 35 -5 3 -12 1 -16 -5z"/>
<path d="M2060 4050 c0 -13 -7 -20 -20 -20 -11 0 -25 -9 -32 -19 -12 -20 -12
-20 -26 0 -26 38 -72 17 -72 -34 0 -24 -4 -28 -22 -25 -31 4 -38 45 -8 50 28
4 31 22 4 26 -29 4 -46 -20 -42 -60 l3 -33 65 -2 c49 -1 67 3 76 15 12 16 13
16 19 0 10 -25 75 -25 75 -1 0 15 1 15 18 0 20 -18 72 -23 72 -7 0 6 -11 10
-25 10 -14 0 -25 5 -25 10 0 6 11 10 25 10 17 0 25 5 25 18 0 43 -49 56 -74
20 -16 -22 -16 -21 -16 20 0 23 -4 42 -10 42 -5 0 -10 -9 -10 -20z m-95 -75
c0 -10 -5 -20 -11 -22 -13 -4 -27 24 -18 38 9 15 29 4 29 -16z m95 6 c0 -11
-5 -23 -11 -27 -15 -9 -33 12 -26 30 9 23 37 20 37 -3z"/>
<path d="M1707 4053 c-14 -13 -6 -23 18 -23 33 0 32 -20 -5 -55 -16 -15 -27
-32 -24 -37 7 -12 84 -10 84 2 0 6 -12 10 -27 10 l-26 0 21 23 c24 26 28 57
10 75 -13 13 -41 16 -51 5z"/>
<path d="M1290 3985 l0 -66 63 3 62 3 0 60 0 60 -62 3 -63 3 0 -66z m118 32
c2 -11 1 -34 -3 -53 -6 -33 -7 -34 -55 -34 l-50 0 0 56 0 55 52 -3 c42 -2 54
-7 56 -21z"/>
<path d="M1328 3983 c12 -2 32 -2 45 0 12 2 2 4 -23 4 -25 0 -35 -2 -22 -4z"/>
<path d="M1538 4023 c-14 -3 -18 -15 -18 -49 0 -51 17 -60 22 -12 2 22 9 34
21 36 14 3 17 -4 17 -32 0 -20 5 -36 10 -36 6 0 10 6 10 13 0 9 2 9 9 -1 5 -8
21 -12 37 -10 21 2 30 9 32 26 2 14 -2 22 -12 22 -8 0 -18 5 -21 11 -4 6 0 9
11 7 12 -2 19 3 19 12 0 20 -39 25 -54 6 -11 -14 -15 -14 -28 -1 -15 15 -24
16 -55 8z m118 -71 c-9 -8 -56 12 -56 24 0 10 6 9 29 -4 16 -9 28 -18 27 -20z"/>
<path d="M1794 4016 c-8 -22 3 -33 18 -18 9 9 9 15 0 24 -9 9 -13 7 -18 -6z"/>
<path d="M1794 3956 c-8 -22 3 -33 18 -18 9 9 9 15 0 24 -9 9 -13 7 -18 -6z"/>
<path d="M1807 3813 c-2 -5 -3 -33 -2 -63 2 -52 3 -55 29 -58 15 -2 33 2 41 8
16 13 17 88 2 108 -10 13 -63 17 -70 5z m53 -33 c0 -5 -7 -10 -15 -10 -8 0
-15 5 -15 10 0 6 7 10 15 10 8 0 15 -4 15 -10z m8 -47 c-5 -26 -38 -29 -38 -4
0 15 6 21 21 21 14 0 19 -5 17 -17z"/>
<path d="M1921 3779 c-22 -46 -27 -89 -12 -89 5 0 11 7 15 15 3 8 15 15 26 15
11 0 20 -7 20 -15 0 -15 12 -20 22 -9 8 8 -21 96 -38 113 -11 13 -16 8 -33
-30z m34 -29 c3 -5 -1 -10 -9 -10 -9 0 -16 5 -16 10 0 6 4 10 9 10 6 0 13 -4
16 -10z"/>
<path d="M2022 3804 c-49 -34 -16 -119 45 -112 22 2 29 9 31 31 4 30 -21 48
-40 29 -8 -8 -7 -13 5 -18 23 -9 21 -24 -3 -24 -28 0 -48 44 -30 65 7 9 23 15
34 14 35 -2 39 0 26 16 -16 19 -40 19 -68 -1z"/>
<path d="M2120 3806 c-18 -22 -8 -59 20 -73 l25 -13 -22 -6 c-30 -8 -29 -24 0
-24 21 0 27 6 53 58 0 1 14 -5 30 -13 28 -15 28 -15 7 -21 -30 -8 -29 -24 0
-24 21 0 27 6 53 58 0 1 14 -5 30 -13 28 -15 28 -15 7 -21 -29 -8 -30 -24 -2
-24 29 0 48 27 49 68 0 61 -51 83 -77 32 -7 -14 -13 -19 -13 -12 0 20 -28 44
-47 40 -10 -2 -23 -14 -30 -28 -7 -14 -13 -19 -13 -12 0 18 -25 42 -43 42 -8
0 -20 -7 -27 -14z m48 -33 c2 -8 -5 -13 -17 -13 -12 0 -21 6 -21 16 0 18 31
15 38 -3z m90 0 c2 -8 -5 -13 -17 -13 -12 0 -21 6 -21 16 0 18 31 15 38 -3z
m90 0 c2 -8 -5 -13 -17 -13 -12 0 -21 6 -21 16 0 18 31 15 38 -3z"/>
<path d="M1930 3560 c0 -29 -13 -40 -25 -20 -9 14 -51 12 -62 -2 -8 -11 -9
-34 -4 -100 1 -21 21 -25 21 -4 0 15 51 29 75 20 10 -4 15 0 15 12 1 18 1 18
11 1 14 -24 109 -22 109 2 1 14 2 14 14 -1 14 -19 36 -24 36 -10 0 5 -9 17
-20 27 -20 18 -20 18 0 32 11 8 18 19 14 24 -4 6 -14 3 -25 -7 -18 -17 -19
-16 -19 19 0 21 -4 37 -10 37 -5 0 -10 -13 -10 -30 0 -29 -13 -40 -25 -20 -11
17 -43 11 -59 -12 -16 -22 -16 -21 -16 20 0 23 -4 42 -10 42 -5 0 -10 -13 -10
-30z m-35 -65 c0 -11 -8 -21 -17 -23 -14 -3 -18 3 -18 23 0 20 4 26 18 23 9
-2 17 -12 17 -23z m155 -15 c0 -5 -13 -10 -29 -10 -17 0 -33 5 -36 10 -4 6 8
10 29 10 20 0 36 -4 36 -10z"/>
<path d="M1707 3573 c-14 -13 -6 -23 18 -23 33 0 32 -20 -5 -55 -16 -15 -27
-32 -24 -37 7 -12 84 -10 84 2 0 6 -12 10 -27 10 l-26 0 21 23 c24 26 28 57
10 75 -13 13 -41 16 -51 5z"/>
<path d="M1290 3505 l0 -66 63 3 62 3 0 60 0 60 -62 3 -63 3 0 -66z m118 32
c2 -11 1 -34 -3 -53 -6 -33 -7 -34 -55 -34 l-50 0 0 56 0 55 52 -3 c42 -2 54
-7 56 -21z"/>
<path d="M1328 3503 c12 -2 32 -2 45 0 12 2 2 4 -23 4 -25 0 -35 -2 -22 -4z"/>
<path d="M1538 3543 c-14 -3 -18 -15 -18 -49 0 -51 17 -60 22 -12 2 22 9 34
21 36 14 3 17 -4 17 -32 0 -20 5 -36 10 -36 6 0 10 6 10 13 0 9 2 9 9 -1 5 -8
21 -12 37 -10 21 2 30 9 32 26 2 14 -2 22 -12 22 -8 0 -18 5 -21 11 -4 6 0 9
11 7 12 -2 19 3 19 12 0 20 -39 25 -54 6 -11 -14 -15 -14 -28 -1 -15 15 -24
16 -55 8z m118 -71 c-9 -8 -56 12 -56 24 0 10 6 9 29 -4 16 -9 28 -18 27 -20z"/>
<path d="M1794 3536 c-8 -22 3 -33 18 -18 9 9 9 15 0 24 -9 9 -13 7 -18 -6z"/>
<path d="M1794 3476 c-8 -22 3 -33 18 -18 9 9 9 15 0 24 -9 9 -13 7 -18 -6z"/>
<path d="M1823 3303 c-18 -7 -16 -53 1 -53 8 0 18 -5 22 -12 5 -8 0 -9 -14 -6
-15 4 -22 2 -22 -8 0 -9 11 -14 30 -14 17 0 30 5 30 10 0 7 6 7 19 0 25 -13
71 -13 71 0 0 6 -11 10 -24 10 -39 0 -40 17 -1 22 31 4 35 1 35 -19 0 -13 5
-23 10 -23 6 0 10 13 10 30 0 19 7 33 21 40 18 10 22 7 36 -29 9 -23 19 -41
23 -41 13 0 27 24 35 58 8 40 -9 44 -23 5 -9 -28 -9 -28 -16 -5 -4 13 -18 27
-31 32 -26 10 -65 3 -65 -13 0 -5 -9 -2 -19 7 -25 22 -53 17 -66 -12 -10 -22
-45 -31 -45 -11 0 6 7 8 16 5 11 -4 14 -1 12 11 -3 18 -24 26 -45 16z"/>
<path d="M2132 3298 c-7 -7 -12 -24 -12 -38 0 -14 5 -31 12 -38 14 -14 68 -16
68 -2 0 6 -11 10 -24 10 -39 0 -40 17 -1 22 31 4 35 1 35 -19 0 -13 5 -23 10
-23 6 0 10 14 10 30 0 18 6 33 15 36 8 4 15 13 15 21 0 10 -6 12 -22 7 -13 -4
-26 -11 -29 -16 -3 -5 -12 -2 -19 7 -15 18 -41 20 -58 3z"/>
<path d="M2200 3090 c0 -14 -7 -20 -22 -20 -26 -1 -58 -22 -58 -39 0 -6 -9
-11 -20 -11 -11 0 -20 5 -20 11 0 6 7 8 16 5 11 -4 14 -1 12 11 -4 23 -32 28
-51 9 -12 -13 -17 -13 -26 -2 -11 13 -65 14 -108 1 -14 -5 -23 -3 -23 4 0 16
-35 14 -49 -3 -7 -8 -11 -30 -9 -48 2 -26 8 -34 26 -36 13 -2 32 4 43 14 17
16 19 16 19 1 0 -10 5 -17 10 -17 6 0 10 16 10 35 0 19 5 35 10 35 6 0 10 -16
10 -35 0 -44 18 -46 22 -2 2 17 8 32 13 32 6 0 11 -15 13 -32 2 -18 7 -33 13
-33 5 0 9 15 10 33 0 17 3 26 6 20 2 -7 11 -13 18 -13 8 0 17 -5 21 -12 5 -8
0 -9 -14 -6 -15 4 -22 2 -22 -8 0 -18 56 -19 63 -1 4 10 7 10 18 0 7 -7 30
-13 51 -13 37 0 38 1 38 36 0 28 3 35 18 32 11 -2 18 -14 20 -34 3 -26 7 -31
28 -31 21 0 24 4 24 33 0 27 4 34 20 34 16 0 20 -7 20 -35 0 -19 5 -35 10 -35
6 0 10 18 10 41 0 24 4 38 10 34 17 -10 12 -85 -5 -85 -8 0 -15 -5 -15 -11 0
-6 10 -9 23 -7 19 3 23 10 27 58 l5 55 19 -43 c25 -53 37 -51 62 13 7 16 9 13
12 -16 3 -31 7 -36 27 -36 19 0 24 5 27 31 2 20 9 32 21 34 14 3 17 -4 17 -32
0 -20 5 -36 10 -36 6 0 10 8 10 17 0 15 1 15 13 1 6 -9 23 -19 37 -21 24 -4
24 -4 -2 -6 -38 -1 -36 -21 2 -21 34 0 43 21 38 86 -3 34 -7 39 -30 42 -18 2
-31 -4 -42 -20 -12 -17 -16 -18 -16 -6 0 22 -16 26 -83 20 -51 -4 -58 -7 -64
-30 l-6 -25 -14 27 c-8 15 -23 27 -36 27 -52 3 -108 1 -123 -5 -9 -4 -23 -1
-30 5 -8 6 -21 9 -29 5 -11 -4 -15 1 -15 19 0 14 -4 25 -10 25 -5 0 -10 -9
-10 -20z m-310 -76 c0 -31 -23 -28 -28 4 -2 15 2 22 12 22 11 0 16 -9 16 -26z
m308 -1 c3 -19 -1 -23 -22 -23 -28 0 -41 14 -32 36 9 24 50 13 54 -13z m492 2
c0 -25 -23 -35 -35 -15 -10 16 2 40 20 40 9 0 15 -9 15 -25z"/>
<path d="M1707 3093 c-14 -13 -6 -23 18 -23 33 0 32 -20 -5 -55 -16 -15 -27
-32 -24 -37 7 -12 84 -10 84 2 0 6 -12 10 -27 10 l-26 0 21 23 c24 26 28 57
10 75 -13 13 -41 16 -51 5z"/>
<path d="M1290 3025 l0 -66 63 3 62 3 0 60 0 60 -62 3 -63 3 0 -66z m118 32
c2 -11 1 -34 -3 -53 -6 -33 -7 -34 -55 -34 l-50 0 0 56 0 55 52 -3 c42 -2 54
-7 56 -21z"/>
<path d="M1328 3023 c12 -2 32 -2 45 0 12 2 2 4 -23 4 -25 0 -35 -2 -22 -4z"/>
<path d="M1538 3063 c-14 -3 -18 -15 -18 -49 0 -51 17 -60 22 -12 2 22 9 34
21 36 14 3 17 -4 17 -32 0 -20 5 -36 10 -36 6 0 10 6 10 13 0 9 2 9 9 -1 5 -8
21 -12 37 -10 21 2 30 9 32 26 2 14 -2 22 -12 22 -8 0 -18 5 -21 11 -4 6 0 9
11 7 12 -2 19 3 19 12 0 20 -39 25 -54 6 -11 -14 -15 -14 -28 -1 -15 15 -24
16 -55 8z m118 -71 c-9 -8 -56 12 -56 24 0 10 6 9 29 -4 16 -9 28 -18 27 -20z"/>
<path d="M1794 3056 c-8 -22 3 -33 18 -18 9 9 9 15 0 24 -9 9 -13 7 -18 -6z"/>
<path d="M1794 2996 c-8 -22 3 -33 18 -18 9 9 9 15 0 24 -9 9 -13 7 -18 -6z"/>
<path d="M2020 2840 c0 -30 -13 -40 -25 -19 -4 6 -19 7 -36 4 -21 -5 -36 -1
-55 14 -33 26 -56 27 -77 3 -20 -22 -22 -83 -5 -100 17 -17 54 -15 83 4 23 15
25 15 25 0 0 -9 5 -16 10 -16 6 0 10 16 10 36 0 28 3 35 18 32 11 -2 18 -14
20 -34 3 -29 6 -31 44 -32 25 -1 48 4 58 13 16 14 18 14 24 0 8 -22 106 -19
106 4 1 14 2 14 13 1 14 -18 117 -26 117 -10 0 5 -11 10 -24 10 -39 0 -40 17
-1 22 31 4 35 1 35 -19 0 -35 18 -27 22 9 2 22 9 34 21 36 14 3 17 -4 17 -32
0 -20 5 -36 10 -36 6 0 10 8 10 18 1 16 1 16 11 0 14 -24 79 -25 79 -1 0 15 1
15 18 0 20 -18 72 -23 72 -7 0 6 -11 10 -24 10 -14 0 -28 5 -31 10 -4 6 7 10
24 10 23 0 31 5 31 18 0 43 -49 56 -74 20 -16 -22 -16 -21 -16 20 0 23 -4 42
-10 42 -5 0 -10 -9 -10 -20 0 -13 -7 -20 -19 -20 -11 0 -27 -10 -35 -22 -12
-17 -16 -19 -16 -6 0 9 -7 19 -16 22 -21 8 -64 -3 -64 -17 0 -5 -8 -3 -18 6
-36 33 -72 14 -72 -37 0 -28 0 -29 -20 -11 -20 18 -20 18 0 32 11 8 18 19 14
24 -4 6 -14 3 -25 -7 -18 -17 -19 -16 -19 19 0 21 -4 37 -10 37 -5 0 -10 -13
-10 -30 0 -29 -13 -40 -25 -20 -9 15 -36 12 -55 -5 -15 -14 -18 -14 -30 0 -7
8 -21 15 -31 15 -12 0 -19 7 -19 20 0 11 -4 20 -10 20 -5 0 -10 -13 -10 -30z
m-126 -32 c14 -23 -3 -52 -32 -56 -16 -2 -23 3 -28 22 -3 14 -3 33 0 42 8 20
45 15 60 -8z m176 -33 c0 -16 -6 -25 -15 -25 -9 0 -15 9 -15 25 0 16 6 25 15
25 9 0 15 -9 15 -25z m440 6 c0 -11 -5 -23 -11 -27 -15 -9 -33 12 -26 30 9 23
37 20 37 -3z m-310 -21 c0 -5 -13 -10 -29 -10 -17 0 -33 5 -36 10 -4 6 8 10
29 10 20 0 36 -4 36 -10z"/>
<path d="M2696 2848 c-10 -16 -13 -38 -9 -70 6 -56 23 -65 23 -13 0 46 27 49
32 3 2 -26 8 -34 26 -36 13 -2 30 2 38 9 11 9 18 9 26 1 7 -7 27 -12 45 -12
32 0 33 1 33 45 0 25 -4 45 -10 45 -5 0 -10 -9 -10 -19 0 -30 -11 -51 -26 -51
-9 0 -14 12 -14 35 0 33 -14 48 -22 24 -3 -8 -10 -6 -20 5 -10 10 -29 15 -49
14 -18 -2 -34 2 -36 10 -3 6 2 12 11 12 9 0 16 5 16 10 0 19 -40 10 -54 -12z
m94 -74 c0 -31 -23 -28 -28 4 -2 15 2 22 12 22 11 0 16 -9 16 -26z"/>
<path d="M2926 2833 c-2 -10 -2 -36 2 -58 6 -31 12 -41 30 -43 12 -2 22 1 22
7 0 6 -7 11 -15 11 -21 0 -19 46 2 54 14 6 14 9 -5 26 -26 24 -29 25 -36 3z"/>
<path d="M2990 2745 c0 -8 5 -15 10 -15 6 0 10 7 10 15 0 8 -4 15 -10 15 -5 0
-10 -7 -10 -15z"/>
<path d="M1900 2610 c0 -13 -7 -20 -19 -20 -27 0 -43 -24 -39 -62 3 -30 6 -33
41 -36 30 -3 37 0 37 15 1 17 1 17 11 1 11 -19 79 -26 79 -8 0 6 -11 10 -24
10 -14 0 -28 5 -31 10 -4 6 5 10 20 10 30 0 43 24 25 45 -18 22 -46 18 -64 -7
-16 -22 -16 -21 -16 20 0 23 -4 42 -10 42 -5 0 -10 -9 -10 -20z m0 -59 c0 -21
-13 -41 -26 -41 -8 0 -14 10 -14 25 0 18 5 25 20 25 11 0 20 -4 20 -9z"/>
<path d="M2187 2616 c-13 -10 -15 -15 -5 -18 10 -4 9 -8 -4 -21 -14 -15 -17
-15 -29 -1 -9 11 -23 13 -50 9 -30 -5 -39 -3 -48 12 -24 41 -36 -31 -15 -95 3
-9 27 -12 94 -10 l90 2 1 30 c0 17 3 25 6 19 2 -7 11 -13 18 -13 8 0 17 -5 21
-12 5 -8 0 -9 -14 -6 -15 4 -22 2 -22 -8 0 -18 57 -19 63 -1 6 18 -3 37 -19
37 -8 0 -14 5 -14 11 0 6 7 8 16 5 11 -4 14 -1 12 11 -4 24 -32 28 -52 8 -15
-15 -16 -14 -16 19 0 39 -5 43 -33 22z m-93 -55 c3 -5 -1 -14 -9 -21 -8 -7
-12 -16 -9 -21 3 -5 -2 -9 -10 -9 -19 0 -22 46 -3 53 19 8 25 8 31 -2z m36
-41 c0 -5 -7 -10 -15 -10 -8 0 -15 5 -15 10 0 6 7 10 15 10 8 0 15 -4 15 -10z"/>
<path d="M1707 2613 c-14 -13 -6 -23 18 -23 33 0 32 -20 -5 -55 -16 -15 -27
-32 -24 -37 7 -12 84 -10 84 2 0 6 -12 10 -27 10 l-26 0 21 23 c24 26 28 57
10 75 -13 13 -41 16 -51 5z"/>
<path d="M1290 2545 l0 -66 63 3 62 3 0 60 0 60 -62 3 -63 3 0 -66z m118 32
c2 -11 1 -34 -3 -53 -6 -33 -7 -34 -55 -34 l-50 0 0 56 0 55 52 -3 c42 -2 54
-7 56 -21z"/>
<path d="M1315 2540 c3 -5 19 -10 35 -10 16 0 32 5 35 10 4 6 -10 10 -35 10
-25 0 -39 -4 -35 -10z"/>
<path d="M1538 2583 c-14 -3 -18 -15 -18 -49 0 -51 17 -60 22 -12 2 22 9 34
21 36 14 3 17 -4 17 -32 0 -20 5 -36 10 -36 6 0 10 6 10 13 0 9 2 9 9 -1 5 -8
21 -12 37 -10 21 2 30 9 32 26 2 14 -2 22 -12 22 -8 0 -18 5 -21 11 -4 6 0 9
11 7 12 -2 19 3 19 12 0 20 -39 25 -54 6 -11 -14 -15 -14 -28 -1 -15 15 -24
16 -55 8z m118 -71 c-9 -8 -56 12 -56 24 0 10 6 9 29 -4 16 -9 28 -18 27 -20z"/>
<path d="M1794 2576 c-8 -22 3 -33 18 -18 9 9 9 15 0 24 -9 9 -13 7 -18 -6z"/>
<path d="M1794 2516 c-8 -22 3 -33 18 -18 9 9 9 15 0 24 -9 9 -13 7 -18 -6z"/>
<path d="M2557 2360 c-9 -17 -11 -32 -6 -36 5 -3 9 -21 9 -40 0 -19 5 -34 10
-34 6 0 10 16 10 35 0 19 5 35 10 35 6 0 10 -16 10 -35 0 -19 5 -35 10 -35 6
0 10 14 10 30 0 18 6 33 15 36 8 4 15 13 15 21 0 8 -4 12 -10 8 -12 -8 -60 5
-60 16 0 5 7 9 15 9 8 0 15 5 15 10 0 23 -39 8 -53 -20z"/>
<path d="M3230 2367 c0 -17 -6 -23 -27 -25 -15 -1 -30 -7 -33 -13 -4 -6 -11
-4 -20 6 -27 32 -70 11 -70 -35 0 -14 5 -31 12 -38 18 -18 55 -15 67 6 10 16
10 16 11 0 0 -10 5 -18 10 -18 6 0 10 13 10 30 0 19 7 33 20 40 18 10 20 8 20
-30 0 -22 5 -40 10 -40 6 0 10 7 10 17 0 15 1 15 18 0 18 -16 42 -23 42 -12 0
3 -9 14 -21 26 -19 19 -19 22 -5 38 21 23 8 36 -16 14 -17 -15 -18 -14 -18 20
0 21 -4 37 -10 37 -5 0 -10 -10 -10 -23z m-93 -63 c8 -21 -13 -42 -28 -27 -13
13 -5 43 11 43 6 0 13 -7 17 -16z"/>
<path d="M5830 2370 c0 -11 -7 -23 -15 -26 -8 -4 -15 -14 -15 -24 0 -29 -11
-50 -26 -50 -9 0 -14 12 -14 35 0 33 -14 48 -22 24 -3 -8 -10 -6 -20 5 -18 18
-44 21 -53 6 -3 -6 -15 -5 -30 2 -21 9 -29 8 -45 -7 -23 -20 -26 -57 -7 -73 6
-5 37 -10 67 -10 30 0 61 5 68 10 8 7 16 7 26 -1 21 -18 106 -11 106 8 1 14 2
13 11 -1 6 -12 22 -18 44 -18 l35 0 0 70 c0 40 -4 70 -10 70 -5 0 -10 -9 -10
-20 0 -13 -7 -20 -19 -20 -11 0 -27 -10 -35 -22 -16 -22 -16 -21 -16 20 0 23
-4 42 -10 42 -5 0 -10 -9 -10 -20z m-180 -71 c0 -27 -3 -30 -27 -27 -37 4 -39
39 -3 49 14 4 26 7 28 8 1 1 2 -13 2 -30z m50 -5 c0 -31 -23 -28 -28 4 -2 15
2 22 12 22 11 0 16 -9 16 -26z m220 17 c0 -21 -13 -41 -26 -41 -8 0 -14 10
-14 25 0 18 5 25 20 25 11 0 20 -4 20 -9z"/>
<path d="M8210 2370 c0 -13 -7 -20 -20 -20 -11 0 -25 -9 -32 -19 -12 -19 -12
-19 -26 1 -11 16 -21 19 -48 14 -25 -5 -35 -3 -43 11 -9 17 -11 17 -25 -2 -10
-14 -11 -24 -4 -32 5 -6 9 -20 8 -30 -1 -10 -2 -23 -1 -29 1 -14 121 -17 121
-3 0 5 -11 9 -24 9 -39 0 -40 17 -1 22 28 3 35 0 37 -17 2 -15 12 -21 41 -23
l37 -3 0 70 c0 41 -4 71 -10 71 -5 0 -10 -9 -10 -20z m-150 -70 c0 -16 -4 -30
-10 -30 -11 0 -14 43 -3 53 11 12 13 8 13 -23z m150 1 c0 -11 -5 -23 -11 -27
-15 -9 -33 12 -26 30 9 23 37 20 37 -3z"/>
<path d="M9488 2355 c-5 -46 2 -105 13 -105 5 0 9 16 9 36 0 28 3 35 18 32 11
-2 18 -14 20 -34 3 -29 4 -30 60 -32 38 -1 62 4 73 14 15 13 17 13 23 -1 4
-11 18 -15 56 -14 50 2 50 2 50 36 0 27 4 34 18 31 11 -2 18 -14 20 -36 4 -44
22 -41 22 4 0 28 3 35 18 32 11 -2 18 -14 20 -36 3 -32 16 -42 25 -19 4 10 6
10 6 0 1 -8 16 -13 41 -13 40 0 40 0 40 39 0 46 -19 66 -56 57 -20 -5 -23 -10
-15 -20 8 -10 7 -17 -4 -26 -13 -10 -15 -9 -15 8 0 11 -6 24 -12 29 -13 11
-92 9 -127 -2 -11 -3 -22 -1 -26 5 -9 15 -41 12 -55 -5 -12 -14 -15 -14 -30 0
-9 8 -24 15 -33 15 -10 0 -17 8 -17 20 0 11 -3 20 -7 20 -14 -1 -47 -30 -35
-30 18 0 15 -17 -4 -24 -9 -4 -23 -1 -30 5 -8 6 -21 9 -29 5 -11 -4 -15 1 -15
19 0 38 -17 30 -22 -10z m172 -60 c0 -16 -6 -25 -15 -25 -9 0 -15 9 -15 25 0
16 6 25 15 25 9 0 15 -9 15 -25z m130 -15 c0 -5 -13 -10 -29 -10 -17 0 -33 5
-36 10 -4 6 8 10 29 10 20 0 36 -4 36 -10z m200 0 c0 -5 -7 -10 -15 -10 -8 0
-15 5 -15 10 0 6 7 10 15 10 8 0 15 -4 15 -10z"/>
<path d="M12980 2365 c0 -15 -6 -25 -14 -25 -9 0 -16 -12 -18 -32 -2 -22 -9
-34 -20 -36 -15 -3 -18 4 -18 32 0 20 -4 36 -10 36 -5 0 -10 -5 -10 -12 0 -6
-7 -4 -18 5 -36 32 -72 14 -72 -36 0 -24 -4 -28 -22 -25 -31 4 -38 45 -8 50
28 4 31 22 4 26 -29 4 -46 -20 -42 -60 l3 -33 65 -2 c47 -1 68 2 76 13 10 13
12 13 18 -1 8 -22 106 -19 106 4 1 14 2 13 11 -1 6 -12 22 -18 44 -18 l35 0 0
70 c0 40 -4 70 -10 70 -5 0 -10 -9 -10 -20 0 -13 -7 -20 -19 -20 -11 0 -27
-10 -35 -22 -16 -22 -16 -21 -16 20 0 23 -4 42 -10 42 -5 0 -10 -11 -10 -25z
m-123 -61 c8 -21 -13 -42 -28 -27 -13 13 -5 43 11 43 6 0 13 -7 17 -16z m213
-3 c0 -11 -5 -23 -11 -27 -15 -9 -33 12 -26 30 9 23 37 20 37 -3z"/>
<path d="M4005 2370 c-3 -6 1 -13 9 -16 30 -12 17 -84 -15 -84 -10 0 -19 -5
-19 -11 0 -8 12 -10 36 -6 30 5 37 3 41 -13 6 -23 23 -27 23 -5 0 8 8 15 18
15 10 0 24 6 31 13 11 10 14 10 18 0 3 -8 21 -13 43 -13 21 0 41 6 43 13 4 10
6 10 6 0 1 -7 14 -13 29 -13 56 0 71 50 22 70 -35 15 -40 33 -7 28 27 -3 36
13 13 27 -23 14 -50 -5 -54 -39 -3 -20 1 -26 16 -26 21 0 49 -26 39 -36 -3 -3
-19 -3 -36 1 -24 5 -31 12 -31 30 0 31 -24 49 -56 41 -20 -5 -23 -10 -14 -21
8 -10 8 -15 0 -20 -6 -4 -12 -5 -13 -4 -21 40 -27 44 -60 41 -28 -2 -36 1 -40
18 -5 21 -31 27 -42 10z m110 -75 c0 -11 -8 -21 -17 -23 -14 -3 -18 3 -18 23
0 20 4 26 18 23 9 -2 17 -12 17 -23z m85 -15 c0 -5 -7 -10 -15 -10 -8 0 -15 5
-15 10 0 6 7 10 15 10 8 0 15 -4 15 -10z"/>
<path d="M4767 2374 c-4 -4 -7 -18 -7 -31 0 -21 -2 -22 -14 -11 -16 17 -95 15
-106 -1 -5 -9 -11 -7 -20 4 -10 12 -23 15 -46 10 -25 -4 -35 -2 -43 12 -9 17
-11 17 -25 -2 -10 -14 -11 -24 -4 -32 5 -6 9 -20 8 -30 -1 -10 -2 -23 -1 -29
1 -14 121 -17 121 -3 0 5 -11 9 -24 9 -39 0 -40 17 -1 22 31 4 35 1 35 -19 0
-35 18 -27 22 10 2 17 8 32 13 32 6 0 11 -15 13 -32 4 -44 22 -42 22 2 0 19 5
35 10 35 6 0 10 -15 10 -34 l0 -33 74 -2 c45 -1 77 3 81 9 5 8 11 7 21 -1 19
-16 28 -5 15 19 -8 14 -7 24 4 38 13 18 14 17 15 -12 0 -38 19 -56 57 -53 68
5 113 -1 113 -16 0 -8 5 -15 10 -15 6 0 10 7 10 15 0 8 8 15 18 15 26 0 42 20
42 51 0 39 -22 54 -62 40 -21 -8 -35 -8 -42 -1 -28 28 -84 -16 -70 -54 6 -15
2 -17 -22 -14 -30 3 -47 35 -22 42 55 17 55 16 34 28 -14 8 -24 8 -37 0 -10
-7 -25 -9 -34 -6 -8 4 -21 1 -29 -5 -10 -8 -16 -8 -26 4 -19 23 -32 7 -14 -19
13 -21 13 -26 1 -38 -22 -21 -87 -12 -87 13 0 14 7 19 30 19 17 0 30 5 30 10
0 6 -13 10 -30 10 -40 0 -38 18 3 22 17 2 32 8 32 13 0 12 -67 19 -78 9z
m-217 -74 c0 -16 -4 -30 -10 -30 -11 0 -14 43 -3 53 11 12 13 8 13 -23z m615
-5 c0 -11 -8 -21 -17 -23 -14 -3 -18 3 -18 23 0 20 4 26 18 23 9 -2 17 -12 17
-23z m-55 -15 c0 -5 -13 -10 -29 -10 -17 0 -33 5 -36 10 -4 6 8 10 29 10 20 0
36 -4 36 -10z"/>
<path d="M11022 2364 c-28 -19 -30 -74 -4 -97 24 -22 71 -22 79 -1 5 15 7 15
15 0 7 -12 22 -16 59 -15 49 2 49 2 49 36 0 27 4 34 18 31 11 -2 18 -14 20
-36 3 -33 22 -45 22 -14 1 16 1 16 11 -1 8 -13 22 -17 60 -16 49 2 49 2 49 36
0 26 4 33 20 33 16 0 20 -7 20 -35 0 -38 20 -50 21 -12 l0 22 9 -22 c9 -21 15
-22 111 -21 85 1 105 4 120 19 19 19 19 18 19 -1 0 -30 69 -29 77 1 6 20 6 20
27 0 18 -16 36 -20 113 -20 51 0 95 4 98 9 4 6 13 5 25 -2 22 -14 39 -3 22 14
-16 16 -15 45 1 51 6 2 8 8 4 13 -4 4 -17 3 -27 -4 -12 -7 -20 -8 -20 -2 0 5
-7 10 -15 10 -18 0 -19 -5 -3 -29 18 -29 -3 -48 -47 -43 -26 3 -35 9 -35 23 0
14 7 19 30 19 17 0 30 5 30 10 0 6 -13 10 -30 10 -36 0 -40 17 -5 22 50 6 19
23 -45 24 -72 1 -106 -14 -113 -49 -3 -16 -5 -13 -6 9 -1 32 -15 44 -53 44
-12 0 -22 -8 -25 -21 l-6 -20 -21 20 c-16 15 -34 20 -74 19 -53 -1 -77 -13
-48 -24 17 -7 21 -50 7 -72 -5 -8 -23 -12 -47 -10 -31 2 -40 7 -42 25 -2 16 3
22 20 25 29 4 30 22 1 26 -13 2 -27 -5 -37 -20 -12 -17 -16 -18 -16 -6 0 19
-38 28 -70 16 -14 -5 -27 -5 -34 2 -16 16 -45 12 -58 -9 -11 -18 -12 -18 -28
2 -15 18 -20 19 -50 8 -23 -7 -37 -8 -44 -1 -16 16 -45 12 -58 -10 -8 -13 -19
-18 -34 -14 -25 7 -43 -13 -20 -22 23 -9 20 -24 -4 -24 -28 0 -48 44 -30 65 7
9 23 15 34 14 35 -2 39 0 26 16 -16 19 -40 19 -68 -1z m664 -29 c11 -27 -5
-65 -26 -65 -17 0 -20 7 -20 40 0 34 3 40 20 40 11 0 23 -7 26 -15z m94 5 c0
-5 -9 -10 -20 -10 -11 0 -20 5 -20 10 0 6 9 10 20 10 11 0 20 -4 20 -10z m120
2 c8 -4 15 -17 15 -30 0 -44 -58 -58 -77 -17 -18 41 17 67 62 47z m-120 -52
c0 -13 -7 -20 -20 -20 -13 0 -20 7 -20 20 0 13 7 20 20 20 13 0 20 -7 20 -20z
m-580 -10 c0 -5 -13 -10 -29 -10 -17 0 -33 5 -36 10 -4 6 8 10 29 10 20 0 36
-4 36 -10z m180 0 c0 -5 -13 -10 -29 -10 -17 0 -33 5 -36 10 -4 6 8 10 29 10
20 0 36 -4 36 -10z"/>
<path d="M5206 2353 c-2 -10 -2 -36 2 -58 7 -36 10 -40 40 -43 25 -3 32 0 32
15 1 17 1 17 11 1 13 -23 47 -23 71 -1 17 15 18 15 18 0 0 -10 5 -17 10 -17 6
0 10 16 10 36 0 28 3 35 18 32 11 -2 18 -14 20 -36 5 -45 22 -40 22 7 0 53
-18 66 -67 50 -27 -9 -38 -9 -41 0 -6 19 -40 12 -56 -11 -12 -17 -16 -19 -16
-6 0 9 -11 19 -25 22 -14 4 -25 11 -25 16 0 17 -18 11 -24 -7z m54 -58 c0 -16
-6 -25 -15 -25 -9 0 -15 9 -15 25 0 16 6 25 15 25 9 0 15 -9 15 -25z m80 -1
c0 -31 -23 -28 -28 4 -2 15 2 22 12 22 11 0 16 -9 16 -26z"/>
<path d="M6183 2350 c-9 -13 -9 -21 -2 -25 6 -4 9 -17 8 -28 0 -12 -1 -28 0
-34 1 -15 41 -18 41 -3 0 6 -4 10 -10 10 -13 0 -13 47 0 55 9 6 -8 45 -20 45
-3 0 -11 -9 -17 -20z"/>
<path d="M6723 2350 c-9 -13 -9 -21 -2 -25 6 -4 9 -17 8 -28 0 -12 -1 -27 0
-33 1 -14 121 -17 121 -3 0 5 -11 9 -24 9 -14 0 -28 5 -31 10 -4 6 7 10 24 10
24 0 31 4 31 19 0 29 -25 44 -60 36 -22 -5 -32 -3 -36 9 -8 21 -17 20 -31 -4z
m47 -50 c0 -16 -4 -30 -10 -30 -11 0 -14 43 -3 53 11 12 13 8 13 -23z"/>
<path d="M6993 2350 c-9 -13 -9 -21 -2 -25 6 -4 9 -17 8 -28 -3 -45 -1 -47 61
-47 l60 0 0 39 c0 48 -19 65 -60 56 -22 -5 -32 -3 -36 9 -8 21 -17 20 -31 -4z
m63 -32 c-3 -7 -9 -21 -12 -30 -4 -10 -10 -18 -15 -18 -10 0 -12 43 -2 53 11
12 35 7 29 -5z m39 -38 c-3 -5 -13 -10 -21 -10 -8 0 -12 5 -9 10 3 6 13 10 21
10 8 0 12 -4 9 -10z"/>
<path d="M7143 2350 c-9 -13 -9 -21 -2 -25 6 -4 9 -17 8 -28 0 -12 -1 -27 0
-33 1 -14 121 -17 121 -3 0 5 -11 9 -24 9 -39 0 -40 17 -1 22 31 4 35 1 35
-19 0 -35 18 -27 22 10 2 17 8 32 13 32 6 0 11 -15 13 -32 4 -44 22 -42 22 2
0 19 5 35 10 35 6 0 10 -16 10 -35 0 -19 5 -35 10 -35 6 0 10 7 10 17 0 15 1
15 18 0 20 -18 72 -23 72 -7 0 6 -11 10 -24 10 -39 0 -40 17 -1 22 31 4 35 1
35 -19 0 -35 18 -27 22 9 2 22 9 34 21 36 14 3 17 -4 17 -32 0 -20 5 -36 10
-36 17 0 12 87 -6 94 -21 8 -64 -3 -64 -17 0 -5 -8 -3 -18 6 -25 23 -48 21
-66 -5 -13 -18 -16 -19 -16 -5 0 9 -6 18 -12 18 -48 5 -91 0 -97 -10 -6 -9
-11 -8 -21 4 -10 12 -23 15 -47 10 -25 -4 -35 -2 -39 10 -8 20 -17 19 -31 -5z
m47 -50 c0 -16 -4 -30 -10 -30 -11 0 -14 43 -3 53 11 12 13 8 13 -23z"/>
<path d="M7593 2350 c-9 -13 -9 -21 -2 -25 6 -4 9 -17 8 -28 -3 -40 1 -47 26
-47 16 0 25 -6 25 -16 0 -22 26 -1 33 26 5 21 -18 29 -25 9 -6 -19 -38 3 -38
26 0 28 17 42 33 26 15 -15 27 -14 27 4 0 9 -9 15 -25 15 -14 0 -28 7 -31 15
-8 20 -17 19 -31 -5z"/>
<path d="M8733 2350 c-9 -13 -9 -21 -2 -25 6 -4 9 -17 8 -28 -3 -41 1 -47 31
-47 21 0 30 5 30 17 0 15 1 15 18 0 24 -22 58 -22 71 1 10 16 10 16 11 0 0
-31 19 -19 22 14 2 22 9 34 21 36 14 3 17 -4 17 -32 0 -20 5 -36 10 -36 17 0
12 87 -6 94 -21 8 -64 -3 -64 -17 0 -5 -8 -3 -18 6 -25 23 -48 21 -66 -5 -13
-18 -16 -19 -16 -5 0 9 -7 17 -15 17 -9 0 -18 7 -21 15 -8 20 -17 19 -31 -5z
m47 -55 c0 -14 -4 -25 -10 -25 -5 0 -10 11 -10 25 0 14 5 25 10 25 6 0 10 -11
10 -25z m87 9 c8 -21 -13 -42 -28 -27 -13 13 -5 43 11 43 6 0 13 -7 17 -16z"/>
<path d="M10036 2353 c-2 -10 -2 -36 2 -58 l7 -40 63 -3 c37 -1 62 2 62 8 0 5
-11 10 -24 10 -35 0 -42 18 -9 22 20 2 28 9 28 22 0 28 -30 44 -55 28 -17 -10
-23 -9 -40 8 -24 24 -27 25 -34 3z m50 -58 c1 -15 -3 -25 -12 -25 -8 0 -14 10
-14 25 0 33 25 33 26 0z"/>
<path d="M10683 2350 c-9 -13 -9 -21 -2 -25 6 -4 9 -17 8 -28 -3 -41 1 -47 31
-47 21 0 30 5 30 17 0 15 1 15 18 0 24 -22 58 -22 71 1 10 16 10 16 11 0 0
-31 19 -19 22 14 2 22 9 34 21 36 14 3 17 -4 17 -32 0 -20 5 -36 10 -36 17 0
12 87 -6 94 -21 8 -64 -3 -64 -17 0 -5 -8 -3 -18 6 -25 23 -48 21 -66 -5 -13
-18 -16 -19 -16 -5 0 9 -7 17 -15 17 -9 0 -18 7 -21 15 -8 20 -17 19 -31 -5z
m47 -55 c0 -14 -4 -25 -10 -25 -5 0 -10 11 -10 25 0 14 5 25 10 25 6 0 10 -11
10 -25z m87 9 c8 -21 -13 -42 -28 -27 -13 13 -5 43 11 43 6 0 13 -7 17 -16z"/>
<path d="M12363 2350 c-9 -13 -9 -21 -2 -25 6 -4 9 -17 8 -28 -3 -41 1 -47 31
-47 21 0 30 5 30 17 0 15 1 15 18 0 24 -22 58 -22 71 1 10 16 10 16 11 0 0
-31 19 -19 22 14 2 22 9 34 21 36 14 3 17 -4 17 -32 0 -20 5 -36 10 -36 17 0
12 87 -6 94 -21 8 -64 -3 -64 -17 0 -5 -8 -3 -18 6 -25 23 -48 21 -66 -5 -13
-18 -16 -19 -16 -5 0 9 -7 17 -15 17 -9 0 -18 7 -21 15 -8 20 -17 19 -31 -5z
m47 -55 c0 -14 -4 -25 -10 -25 -5 0 -10 11 -10 25 0 14 5 25 10 25 6 0 10 -11
10 -25z m87 9 c8 -21 -13 -42 -28 -27 -13 13 -5 43 11 43 6 0 13 -7 17 -16z"/>
<path d="M13336 2353 c-2 -10 -2 -36 2 -58 6 -31 12 -41 30 -43 12 -2 22 1 22
7 0 6 -7 11 -15 11 -20 0 -20 46 0 54 13 5 12 9 -5 26 -24 24 -27 25 -34 3z"/>
<path d="M13876 2353 c-2 -10 -2 -36 2 -58 l7 -40 63 -3 c37 -1 62 2 62 8 0 5
-11 10 -24 10 -35 0 -42 18 -9 22 20 2 28 9 28 22 0 28 -30 44 -55 28 -17 -10
-23 -9 -40 8 -24 24 -27 25 -34 3z m50 -58 c1 -15 -3 -25 -12 -25 -8 0 -14 10
-14 25 0 33 25 33 26 0z"/>
<path d="M14146 2353 c-2 -10 -2 -36 2 -58 l7 -40 63 -3 62 -3 0 39 c0 50 -18
65 -64 57 -28 -6 -37 -4 -42 9 -8 21 -21 20 -28 -1z m68 -32 c3 -5 -1 -14 -9
-21 -8 -7 -12 -16 -9 -21 3 -5 -2 -9 -10 -9 -19 0 -22 46 -3 53 19 8 25 8 31
-2z m36 -41 c0 -5 -7 -10 -15 -10 -8 0 -15 5 -15 10 0 6 7 10 15 10 8 0 15 -4
15 -10z"/>
<path d="M14296 2353 c-2 -10 -2 -36 2 -58 l7 -40 78 -2 77 -1 0 34 c0 19 5
34 10 34 6 0 10 -16 10 -35 0 -44 18 -46 22 -2 2 17 8 32 13 32 6 0 11 -15 13
-32 3 -34 22 -47 22 -15 1 16 1 16 11 -1 8 -13 22 -17 60 -16 49 2 49 2 49 36
0 27 4 34 18 31 11 -2 18 -14 20 -36 5 -45 22 -40 22 7 0 51 -19 67 -62 52
-21 -8 -35 -8 -42 -1 -16 16 -44 12 -58 -9 -14 -19 -14 -19 -26 -1 -8 14 -20
17 -52 14 -23 -2 -45 -6 -50 -9 -5 -3 -18 0 -30 7 -16 10 -24 10 -40 0 -17
-10 -23 -9 -40 8 -24 24 -27 25 -34 3z m50 -58 c1 -15 -3 -25 -12 -25 -8 0
-14 10 -14 25 0 33 25 33 26 0z m94 -15 c0 -5 -13 -10 -29 -10 -17 0 -33 5
-36 10 -4 6 8 10 29 10 20 0 36 -4 36 -10z m210 0 c0 -5 -13 -10 -29 -10 -17
0 -33 5 -36 10 -4 6 8 10 29 10 20 0 36 -4 36 -10z"/>
<path d="M14746 2353 c-2 -10 -2 -36 2 -58 6 -31 12 -41 30 -43 12 -2 22 1 22
7 0 6 -7 11 -15 11 -20 0 -20 46 0 54 13 5 12 9 -5 26 -24 24 -27 25 -34 3z"/>
<path d="M1821 2336 c-7 -8 -11 -30 -9 -48 2 -26 8 -34 26 -36 13 -2 32 4 43
14 17 16 19 16 19 1 0 -10 5 -17 10 -17 6 0 10 15 10 34 0 21 6 36 16 40 31
12 4 25 -28 14 -24 -9 -33 -8 -36 0 -5 17 -37 15 -51 -2z m39 -42 c0 -31 -23
-28 -28 4 -2 15 2 22 12 22 11 0 16 -9 16 -26z"/>
<path d="M1973 2338 c-30 -39 -21 -83 19 -91 20 -4 19 -4 -4 -6 -37 -1 -36
-21 1 -21 40 0 53 20 49 77 -3 43 -6 48 -29 51 -14 2 -30 -3 -36 -10z m47 -43
c0 -18 -5 -25 -20 -25 -15 0 -20 7 -20 25 0 18 5 25 20 25 15 0 20 -7 20 -25z"/>
<path d="M2122 2342 c-17 -5 -15 -52 2 -52 8 0 18 -5 22 -12 5 -8 0 -9 -14 -6
-16 4 -22 2 -22 -9 0 -11 9 -14 35 -11 29 3 35 1 35 -14 0 -10 5 -18 10 -18 6
0 10 7 10 15 0 9 9 15 23 15 13 0 28 5 35 12 9 9 12 9 12 0 0 -7 5 -12 10 -12
6 0 10 13 10 30 0 19 7 33 20 40 18 10 20 8 20 -28 0 -35 3 -39 24 -39 21 0
25 5 28 31 2 20 9 32 21 34 14 3 17 -4 17 -32 0 -20 5 -36 10 -36 6 0 10 8 10
17 0 15 1 15 13 1 6 -9 23 -19 37 -21 24 -4 24 -4 -2 -6 -38 -1 -36 -21 2 -21
34 0 43 21 38 86 -3 34 -7 39 -30 42 -18 2 -31 -4 -42 -20 -12 -17 -16 -18
-16 -6 0 21 -14 25 -80 22 -83 -5 -100 -5 -165 -1 -33 2 -66 2 -73 -1z m58
-34 c0 -4 -9 -8 -20 -8 -11 0 -20 4 -20 9 0 6 9 9 20 8 11 -1 20 -5 20 -9z
m60 -13 c0 -18 -5 -25 -20 -25 -20 0 -28 28 -13 43 15 16 33 6 33 -18z m270 0
c0 -25 -23 -35 -35 -15 -10 16 2 40 20 40 9 0 15 -9 15 -25z"/>
<path d="M2679 2343 c-3 -21 -6 -29 -13 -45 -16 -35 0 -49 53 -47 48 2 50 3
53 33 4 41 22 40 26 -1 4 -44 22 -42 22 2 0 19 5 35 10 35 6 0 10 -16 10 -35
0 -19 5 -35 10 -35 6 0 10 7 10 17 0 15 1 15 18 0 20 -18 72 -23 72 -7 0 6
-11 10 -24 10 -14 0 -28 5 -31 10 -4 6 7 10 24 10 23 0 31 5 31 18 0 43 -49
56 -74 20 -13 -18 -16 -19 -16 -5 0 9 -6 18 -12 18 -48 5 -91 0 -97 -10 -6 -9
-11 -8 -21 4 -13 15 -49 21 -51 8z m36 -63 c-3 -5 -13 -10 -21 -10 -8 0 -12 5
-9 10 3 6 13 10 21 10 8 0 12 -4 9 -10z"/>
<path d="M3381 2336 c-7 -8 -11 -30 -9 -48 2 -26 8 -34 26 -36 13 -2 32 4 43
14 17 16 19 16 19 1 0 -10 5 -17 10 -17 6 0 10 16 10 36 0 28 3 35 18 32 11
-2 18 -14 20 -36 4 -43 22 -41 22 3 0 19 5 35 10 35 6 0 10 -16 10 -35 0 -44
18 -46 22 -2 2 17 8 32 13 32 6 0 11 -15 13 -32 2 -18 7 -33 13 -33 14 0 11
76 -3 87 -14 10 -118 9 -160 -2 -18 -5 -28 -3 -28 4 0 16 -35 14 -49 -3z m39
-42 c0 -31 -23 -28 -28 4 -2 15 2 22 12 22 11 0 16 -9 16 -26z"/>
<path d="M3694 2338 c-2 -4 0 -9 6 -13 17 -10 13 -85 -5 -85 -8 0 -15 -4 -15
-10 0 -14 33 -13 48 2 9 9 12 9 12 0 0 -7 5 -12 10 -12 6 0 10 7 10 15 0 9 9
15 23 15 13 0 28 5 34 11 8 8 13 8 17 0 4 -6 23 -11 42 -11 33 0 34 1 34 39 0
21 -6 44 -15 51 -19 16 -51 8 -47 -12 4 -25 -16 -31 -23 -8 -3 11 -11 21 -16
21 -34 5 -112 3 -115 -3z m106 -43 c0 -18 -5 -25 -20 -25 -20 0 -28 28 -13 43
15 16 33 6 33 -18z m85 -15 c-3 -5 -13 -10 -21 -10 -8 0 -12 5 -9 10 3 6 13
10 21 10 8 0 12 -4 9 -10z"/>
<path d="M4430 2341 c-8 -5 -18 -7 -23 -4 -6 3 -18 -5 -28 -18 l-19 -24 0 23
c0 13 -6 22 -15 22 -18 0 -18 -2 -1 -45 8 -18 12 -43 9 -54 -7 -26 15 -28 24
-3 21 60 36 86 40 70 3 -10 11 -18 18 -18 8 0 17 -5 21 -12 5 -8 0 -9 -14 -6
-15 4 -22 2 -22 -8 0 -18 56 -19 62 -1 7 18 -2 37 -18 37 -8 0 -14 5 -14 11 0
6 7 8 16 5 11 -4 14 -1 12 11 -4 21 -27 27 -48 14z"/>
<path d="M6008 2343 c-14 -3 -18 -15 -18 -49 0 -51 17 -60 22 -12 2 22 9 34
21 36 14 3 17 -4 17 -32 0 -20 5 -36 10 -36 6 0 10 7 10 17 0 15 1 15 18 0 23
-21 58 -22 66 -1 25 65 -31 115 -68 62 -12 -17 -16 -19 -16 -6 0 9 -7 19 -16
22 -17 6 -19 6 -46 -1z m129 -39 c8 -21 -13 -42 -28 -27 -13 13 -5 43 11 43 6
0 13 -7 17 -16z"/>
<path d="M6285 2326 c-12 -18 -13 -30 -6 -50 9 -21 17 -26 46 -26 19 0 35 5
35 10 0 6 -11 10 -24 10 -14 0 -28 5 -31 10 -4 6 5 10 20 10 30 0 43 24 25 45
-18 22 -47 18 -65 -9z"/>
<path d="M6465 2326 c-12 -18 -13 -30 -6 -50 9 -21 17 -26 46 -26 19 0 35 5
35 10 0 6 -11 10 -24 10 -14 0 -28 5 -31 10 -4 6 8 10 28 10 26 0 36 -5 40
-20 5 -18 14 -20 76 -20 l71 0 0 45 c0 52 -17 61 -22 13 -2 -22 -9 -34 -20
-36 -14 -3 -18 4 -18 31 0 32 -3 36 -32 42 -25 6 -35 3 -48 -13 -16 -19 -17
-19 -28 -1 -17 26 -48 24 -67 -5z m155 -32 c0 -21 -4 -25 -22 -22 -15 2 -24
11 -26 26 -3 18 1 22 22 22 21 0 26 -5 26 -26z"/>
<path d="M6923 2343 c-18 -7 -16 -53 1 -53 8 0 18 -5 22 -12 5 -8 0 -9 -14 -6
-15 4 -22 2 -22 -8 0 -18 56 -19 62 -1 7 18 -2 37 -18 37 -8 0 -14 5 -14 11 0
6 7 8 16 5 11 -4 14 -1 12 11 -3 18 -24 26 -45 16z"/>
<path d="M7761 2339 c-15 -6 -21 -14 -17 -25 3 -9 6 -27 6 -40 0 -13 5 -24 10
-24 6 0 10 16 10 36 0 28 3 35 18 32 11 -2 18 -14 20 -36 3 -33 22 -45 22 -14
1 16 1 16 11 0 11 -19 79 -26 79 -8 0 6 -11 10 -24 10 -35 0 -43 20 -9 22 44
2 67 -2 78 -14 7 -8 4 -9 -12 -5 -16 3 -23 1 -23 -9 0 -18 57 -19 63 -1 6 18
-3 37 -19 37 -8 0 -14 5 -14 11 0 6 7 8 16 5 11 -4 14 -1 12 11 -4 23 -32 28
-51 9 -13 -14 -16 -14 -27 -1 -17 21 -46 19 -62 -4 -14 -20 -14 -20 -26 0 -13
21 -25 23 -61 8z"/>
<path d="M8295 2326 c-12 -18 -13 -30 -6 -50 9 -21 17 -26 46 -26 19 0 35 5
35 10 0 6 -11 10 -24 10 -14 0 -28 5 -31 10 -4 6 5 10 20 10 30 0 43 24 25 45
-18 22 -47 18 -65 -9z"/>
<path d="M8481 2336 c-7 -8 -11 -30 -9 -48 l3 -33 73 -2 c40 -1 72 2 72 7 0 6
-11 10 -24 10 -39 0 -40 17 -1 22 35 4 35 4 35 -34 0 -21 5 -38 10 -38 6 0 10
7 10 15 0 9 9 15 25 15 41 0 59 54 29 85 -17 17 -63 13 -75 -6 -3 -6 -11 -3
-19 6 -27 33 -70 11 -70 -38 0 -24 -4 -28 -22 -25 -33 4 -37 45 -6 50 13 2 23
8 23 13 0 16 -41 17 -54 1z m209 -41 c0 -18 -5 -25 -20 -25 -20 0 -28 28 -13
43 15 16 33 6 33 -18z"/>
<path d="M9076 2335 c-9 -9 -16 -12 -16 -6 0 6 -4 11 -10 11 -5 0 -10 -20 -10
-45 0 -51 20 -63 21 -12 0 17 3 26 6 20 2 -7 11 -13 18 -13 8 0 17 -5 21 -12
5 -8 0 -9 -14 -6 -15 4 -22 2 -22 -8 0 -18 56 -19 62 -1 7 18 -2 37 -18 37 -8
0 -14 5 -14 11 0 6 7 8 16 5 11 -4 14 -1 12 11 -4 24 -32 28 -52 8z"/>
<path d="M9201 2336 c-7 -8 -11 -30 -9 -48 2 -26 8 -34 26 -36 13 -2 32 4 43
14 17 16 19 16 19 1 0 -10 5 -17 10 -17 6 0 10 15 10 34 0 21 6 36 16 40 31
12 4 25 -28 14 -24 -9 -33 -8 -36 0 -5 17 -37 15 -51 -2z m39 -42 c0 -31 -23
-28 -28 4 -2 15 2 22 12 22 11 0 16 -9 16 -26z"/>
<path d="M9353 2338 c-30 -39 -21 -83 19 -91 20 -4 19 -4 -4 -6 -37 -1 -36
-21 1 -21 40 0 53 20 49 77 -3 43 -6 48 -29 51 -14 2 -30 -3 -36 -10z m47 -43
c0 -18 -5 -25 -20 -25 -15 0 -20 7 -20 25 0 18 5 25 20 25 15 0 20 -7 20 -25z"/>
<path d="M10245 2326 c-12 -18 -13 -30 -6 -50 9 -21 17 -26 46 -26 19 0 35 5
35 10 0 6 -11 10 -24 10 -14 0 -28 5 -31 10 -4 6 5 10 20 10 30 0 43 24 25 45
-18 22 -47 18 -65 -9z"/>
<path d="M10431 2336 c-7 -8 -11 -30 -9 -48 l3 -33 73 -2 c40 -1 72 2 72 7 0
6 -11 10 -24 10 -39 0 -40 17 -1 22 35 4 35 4 35 -34 0 -21 5 -38 10 -38 6 0
10 7 10 15 0 9 9 15 25 15 41 0 59 54 29 85 -17 17 -63 13 -75 -6 -3 -6 -11
-3 -19 6 -27 33 -70 11 -70 -38 0 -24 -4 -28 -22 -25 -33 4 -37 45 -6 50 13 2
23 8 23 13 0 16 -41 17 -54 1z m209 -41 c0 -18 -5 -25 -20 -25 -20 0 -28 28
-13 43 15 16 33 6 33 -18z"/>
<path d="M12111 2336 c-7 -8 -11 -30 -9 -48 l3 -33 73 -2 c40 -1 72 2 72 7 0
6 -11 10 -24 10 -39 0 -40 17 -1 22 35 4 35 4 35 -34 0 -21 5 -38 10 -38 6 0
10 7 10 15 0 9 9 15 25 15 41 0 59 54 29 85 -17 17 -63 13 -75 -6 -3 -6 -11
-3 -19 6 -27 33 -70 11 -70 -38 0 -24 -4 -28 -22 -25 -33 4 -37 45 -6 50 13 2
23 8 23 13 0 16 -41 17 -54 1z m209 -41 c0 -18 -5 -25 -20 -25 -20 0 -28 28
-13 43 15 16 33 6 33 -18z"/>
<path d="M13161 2339 c-15 -6 -21 -14 -17 -25 3 -9 6 -27 6 -40 0 -13 5 -24
10 -24 6 0 10 16 10 36 0 28 3 35 18 32 11 -2 18 -14 20 -36 3 -33 22 -45 22
-14 1 16 1 16 11 0 20 -36 79 -16 79 27 -1 48 -47 71 -72 36 -14 -20 -14 -20
-26 0 -13 21 -25 23 -61 8z m129 -45 c0 -31 -23 -28 -28 4 -2 15 2 22 12 22
11 0 16 -9 16 -26z"/>
<path d="M13442 2338 c-7 -7 -12 -24 -12 -38 0 -14 5 -31 12 -38 14 -14 68
-16 68 -2 0 6 -11 10 -24 10 -14 0 -28 5 -31 10 -4 6 7 10 24 10 23 0 31 5 31
18 0 22 -19 42 -40 42 -9 0 -21 -5 -28 -12z"/>
<path d="M13527 2344 c-3 -4 1 -17 9 -29 13 -20 13 -24 -2 -39 -20 -21 -10
-34 15 -19 14 9 21 9 30 0 16 -16 24 -2 12 21 -7 14 -6 24 5 40 13 20 13 22 0
22 -8 0 -18 -5 -21 -11 -5 -7 -13 -5 -24 5 -10 9 -20 13 -24 10z"/>
<path d="M13622 2338 c-7 -7 -12 -24 -12 -38 0 -14 5 -31 12 -38 14 -14 68
-16 68 -2 0 6 -11 10 -24 10 -38 0 -41 18 -4 22 25 2 36 -2 43 -17 9 -17 22
-20 83 -23 l72 -2 0 45 c0 25 -4 45 -10 45 -5 0 -10 -9 -10 -19 0 -30 -11 -51
-26 -51 -9 0 -14 12 -14 34 0 29 -4 34 -30 40 -31 6 -70 -10 -70 -29 0 -5 -7
1 -16 13 -17 24 -43 29 -62 10z m156 -40 c-3 -25 -34 -36 -50 -20 -17 17 -1
42 27 42 22 0 26 -4 23 -22z"/>
<path d="M14072 2338 c-19 -19 -14 -36 16 -53 l27 -16 -27 6 c-21 4 -28 2 -28
-10 0 -12 8 -15 33 -13 24 2 33 8 35 26 2 14 -2 22 -12 22 -8 0 -18 5 -21 11
-4 6 0 9 11 7 12 -2 19 3 19 12 0 19 -36 25 -53 8z"/>
<path d="M2960 2328 c0 -24 25 -78 34 -75 6 2 13 14 16 27 l5 23 12 -27 c15
-32 29 -33 37 -3 9 34 7 67 -4 67 -5 0 -10 -10 -11 -22 l0 -23 -11 23 c-13 27
-26 28 -44 5 -13 -17 -13 -17 -14 0 0 19 -20 24 -20 5z"/>
<path d="M5480 2324 c0 -17 22 -14 28 4 2 7 -3 12 -12 12 -9 0 -16 -7 -16 -16z"/>
<path d="M6370 2332 c0 -4 6 -14 12 -20 10 -10 10 -17 0 -33 -15 -23 -8 -39 9
-22 9 9 16 9 30 0 22 -13 38 -2 21 15 -16 16 -15 45 1 51 6 2 8 8 4 13 -4 4
-17 3 -27 -4 -12 -7 -20 -8 -20 -2 0 5 -7 10 -15 10 -8 0 -15 -4 -15 -8z"/>
<path d="M8380 2332 c0 -4 6 -14 12 -20 10 -10 10 -17 0 -33 -15 -23 -8 -39 9
-22 9 9 16 9 30 0 22 -13 38 -2 21 15 -16 16 -15 45 1 51 6 2 8 8 4 13 -4 4
-17 3 -27 -4 -12 -7 -20 -8 -20 -2 0 5 -7 10 -15 10 -8 0 -15 -4 -15 -8z"/>
<path d="M10330 2332 c0 -4 6 -14 12 -20 10 -10 10 -17 0 -33 -15 -23 -8 -39
9 -22 9 9 16 9 30 0 22 -13 38 -2 21 15 -16 16 -15 45 1 51 6 2 8 8 4 13 -4 4
-17 3 -27 -4 -12 -7 -20 -8 -20 -2 0 5 -7 10 -15 10 -8 0 -15 -4 -15 -8z"/>
<path d="M12632 2328 c6 -18 28 -21 28 -4 0 9 -7 16 -16 16 -9 0 -14 -5 -12
-12z"/>
<path d="M2060 2265 c0 -8 5 -15 10 -15 6 0 10 7 10 15 0 8 -4 15 -10 15 -5 0
-10 -7 -10 -15z"/>
<path d="M3320 2265 c0 -8 5 -15 10 -15 6 0 10 7 10 15 0 8 -4 15 -10 15 -5 0
-10 -7 -10 -15z"/>
<path d="M3650 2265 c0 -8 5 -15 10 -15 6 0 10 7 10 15 0 8 -4 15 -10 15 -5 0
-10 -7 -10 -15z"/>
<path d="M3932 2268 c6 -18 28 -21 28 -4 0 9 -7 16 -16 16 -9 0 -14 -5 -12
-12z"/>
<path d="M5480 2264 c0 -17 22 -14 28 4 2 7 -3 12 -12 12 -9 0 -16 -7 -16 -16z"/>
<path d="M9440 2265 c0 -8 5 -15 10 -15 6 0 10 7 10 15 0 8 -4 15 -10 15 -5 0
-10 -7 -10 -15z"/>
<path d="M10190 2265 c0 -8 5 -15 10 -15 6 0 10 7 10 15 0 8 -4 15 -10 15 -5
0 -10 -7 -10 -15z"/>
<path d="M10952 2268 c6 -18 28 -21 28 -4 0 9 -7 16 -16 16 -9 0 -14 -5 -12
-12z"/>
<path d="M12632 2268 c6 -18 28 -21 28 -4 0 9 -7 16 -16 16 -9 0 -14 -5 -12
-12z"/>
</g>
</svg>
